STARTFONT 2.1
COMMENT "32-point 3270 font"
COMMENT "Uses nonstandard ordering:"
COMMENT " Page 0: EBCDIC US-International set, CG order"
COMMENT " Page 1: EBCDIC APL/APL2 set, CG order (incomplete)"
COMMENT " Page 2: (first 16 characters only) DEC line-drawing characters from"
COMMENT "  fixed-width X fonts"
COMMENT ""
COMMENT "Copyright (c) 1993-2009, Paul Mattes."
COMMENT "Copyright (c) 1990, Georgia Tech Research Corporation (GTRC),"
COMMENT " Atlanta, GA 30332."
COMMENT "All rights reserved."
COMMENT ""
COMMENT "Redistribution and use in source and binary forms, with or"
COMMENT "without modification, are permitted provided that the following"
COMMENT "conditions are met:"
COMMENT "    * Redistributions of source code must retain the above"
COMMENT "      copyright notice, this list of conditions and the following"
COMMENT "      disclaimer."
COMMENT "    * Redistributions in binary form must reproduce the above"
COMMENT "      copyright notice, this list of conditions and the following"
COMMENT "      disclaimer in the documentation and/or other materials"
COMMENT "      provided with the distribution."
COMMENT "    * Neither the names of Paul Mattes, GTRC nor their"
COMMENT "      contributors may be used to endorse or promote products"
COMMENT "      derived from this software without specific prior written"
COMMENT "      permission."
COMMENT ""
COMMENT "THIS SOFTWARE IS PROVIDED BY PAUL MATTES AND GTRC 'AS IS' AND"
COMMENT "ANY EXPRESS OR IMPLIED WARRANTIES, INCLUDING, BUT NOT LIMITED"
COMMENT "TO, THE IMPLIED WARRANTIES OF MERCHANTABILITY AND FITNESS FOR"
COMMENT "A PARTICULAR PURPOSE ARE DISCLAIMED. IN NO EVENT SHALL PAUL"
COMMENT "MATTES OR GTRC BE LIABLE FOR ANY DIRECT, INDIRECT, INCIDENTAL,"
COMMENT "SPECIAL, EXEMPLARY, OR CONSEQUENTIAL DAMAGES (INCLUDING, BUT"
COMMENT "NOT LIMITED TO, PROCUREMENT OF SUBSTITUTE GOODS OR SERVICES;"
COMMENT "LOSS OF USE, DATA, OR PROFITS; OR BUSINESS INTERRUPTION) HOWEVER"

STARTCHAR null
ENCODING 0
SWIDTH 563 0
DWIDTH 18 0
BBX 18 32 0 -8
BITMAP
000000
000000
000000
000000
000000
000000
000000
000000
000000
000000
000000
000000
000000
000000
000000
000000
000000
000000
000000
000000
000000
000000
000000
000000
000000
000000
000000
000000
000000
000000
000000
000000
ENDCHAR
STARTCHAR nobreakspace
ENCODING 1
SWIDTH 563 0
DWIDTH 18 0
BBX 18 32 0 -8
BITMAP
000000
000000
000000
000000
000000
000000
000000
000000
000000
000000
000000
000000
000000
000000
000000
000000
000000
000000
000000
000000
000000
000000
000000
000000
000000
000000
000000
000000
000000
000000
000000
000000
ENDCHAR
STARTCHAR euro
ENCODING 2
SWIDTH 563 0
DWIDTH 18 0
BBX 18 32 0 -8
BITMAP
000000
000000
000000
000000
00fc00
01fe00
038700
070300
0e0000
0c0000
0c0000
3fff00
3ffe00
0c0000
0c0000
3ffe00
3ffc00
0c0000
0c0000
0e0000
070300
038700
01fe00
00fc00
000000
000000
000000
000000
000000
000000
000000
000000
ENDCHAR
STARTCHAR cr
ENCODING 3
SWIDTH 563 0
DWIDTH 18 0
BBX 18 32 0 -8
BITMAP
000000
000000
000000
000000
000000
000000
000000
000000
000000
000000
000000
000000
000000
000000
000000
000000
000000
000000
000000
000000
000000
000000
000000
000000
000000
000000
000000
000000
000000
000000
000000
000000
ENDCHAR
STARTCHAR nl
ENCODING 4
SWIDTH 563 0
DWIDTH 18 0
BBX 18 32 0 -8
BITMAP
000000
000000
000000
000000
000000
000000
000000
000000
000000
000000
000000
000000
000000
000000
000000
000000
000000
000000
000000
000000
000000
000000
000000
000000
000000
000000
000000
000000
000000
000000
000000
000000
ENDCHAR
STARTCHAR em
ENCODING 5
SWIDTH 563 0
DWIDTH 18 0
BBX 18 32 0 -8
BITMAP
000000
000000
000000
000000
000000
000000
000000
000000
000000
000000
000000
000000
000000
000000
000000
000000
000000
000000
000000
000000
000000
000000
000000
000000
000000
000000
000000
000000
000000
000000
000000
000000
ENDCHAR
STARTCHAR eightones
ENCODING 6
SWIDTH 563 0
DWIDTH 18 0
BBX 18 32 0 -8
BITMAP
000000
000000
000000
000000
000000
000000
000000
000000
000000
000000
01e000
03f000
07f800
0ffc00
0ffc00
0ffc00
0ffc00
07f800
03f000
01e000
000000
000000
000000
000000
000000
000000
000000
000000
000000
000000
000000
000000
ENDCHAR
STARTCHAR hyphen
ENCODING 7
SWIDTH 563 0
DWIDTH 18 0
BBX 18 32 0 -8
BITMAP
000000
000000
000000
000000
000000
000000
000000
000000
000000
000000
000000
000000
000000
000000
0ffc00
0ffc00
000000
000000
000000
000000
000000
000000
000000
000000
000000
000000
000000
000000
000000
000000
000000
000000
ENDCHAR
STARTCHAR greater
ENCODING 8
SWIDTH 563 0
DWIDTH 18 0
BBX 18 32 0 -8
BITMAP
000000
000000
000000
000000
000000
000000
0c0000
0e0000
070000
038000
01c000
00e000
007000
003800
001c00
001c00
003800
007000
00e000
01c000
038000
070000
0e0000
0c0000
000000
000000
000000
000000
000000
000000
000000
000000
ENDCHAR
STARTCHAR less
ENCODING 9
SWIDTH 563 0
DWIDTH 18 0
BBX 18 32 0 -8
BITMAP
000000
000000
000000
000000
000000
000000
000c00
001c00
003800
007000
00e000
01c000
038000
070000
0e0000
0e0000
070000
038000
01c000
00e000
007000
003800
001c00
000c00
000000
000000
000000
000000
000000
000000
000000
000000
ENDCHAR
STARTCHAR bracketleft
ENCODING 10
SWIDTH 563 0
DWIDTH 18 0
BBX 18 32 0 -8
BITMAP
000000
000000
000000
000000
03f000
03f000
030000
030000
030000
030000
030000
030000
030000
030000
030000
030000
030000
030000
030000
030000
030000
030000
030000
030000
03f000
03f000
000000
000000
000000
000000
000000
000000
ENDCHAR
STARTCHAR bracketright
ENCODING 11
SWIDTH 563 0
DWIDTH 18 0
BBX 18 32 0 -8
BITMAP
000000
000000
000000
000000
03f000
03f000
003000
003000
003000
003000
003000
003000
003000
003000
003000
003000
003000
003000
003000
003000
003000
003000
003000
003000
03f000
03f000
000000
000000
000000
000000
000000
000000
ENDCHAR
STARTCHAR parenright
ENCODING 12
SWIDTH 563 0
DWIDTH 18 0
BBX 18 32 0 -8
BITMAP
000000
000000
000000
000000
000000
000000
030000
038000
01c000
00e000
007000
003000
003000
003000
003000
003000
003000
003000
003000
007000
00e000
01c000
038000
030000
000000
000000
000000
000000
000000
000000
000000
000000
ENDCHAR
STARTCHAR parenleft
ENCODING 13
SWIDTH 563 0
DWIDTH 18 0
BBX 18 32 0 -8
BITMAP
000000
000000
000000
000000
000000
000000
003000
007000
00e000
01c000
038000
030000
030000
030000
030000
030000
030000
030000
030000
038000
01c000
00e000
007000
003000
000000
000000
000000
000000
000000
000000
000000
000000
ENDCHAR
STARTCHAR braceright
ENCODING 14
SWIDTH 563 0
DWIDTH 18 0
BBX 18 32 0 -8
BITMAP
000000
000000
000000
000000
0f0000
0f8000
01c000
00c000
00c000
00c000
00c000
00c000
00c000
00e000
007000
007000
00e000
00c000
00c000
00c000
00c000
00c000
00c000
01c000
0f8000
0f0000
000000
000000
000000
000000
000000
000000
ENDCHAR
STARTCHAR braceleft
ENCODING 15
SWIDTH 563 0
DWIDTH 18 0
BBX 18 32 0 -8
BITMAP
000000
000000
000000
000000
00f000
01f000
038000
030000
030000
030000
030000
030000
030000
070000
0e0000
0e0000
070000
030000
030000
030000
030000
030000
030000
038000
01f000
00f000
000000
000000
000000
000000
000000
000000
ENDCHAR
STARTCHAR space
ENCODING 16
SWIDTH 563 0
DWIDTH 18 0
BBX 18 32 0 -8
BITMAP
000000
000000
000000
000000
000000
000000
000000
000000
000000
000000
000000
000000
000000
000000
000000
000000
000000
000000
000000
000000
000000
000000
000000
000000
000000
000000
000000
000000
000000
000000
000000
000000
ENDCHAR
STARTCHAR equal
ENCODING 17
SWIDTH 563 0
DWIDTH 18 0
BBX 18 32 0 -8
BITMAP
000000
000000
000000
000000
000000
000000
000000
000000
000000
000000
3fff00
3fff00
000000
000000
000000
000000
3fff00
3fff00
000000
000000
000000
000000
000000
000000
000000
000000
000000
000000
000000
000000
000000
000000
ENDCHAR
STARTCHAR apostrophe
ENCODING 18
SWIDTH 563 0
DWIDTH 18 0
BBX 18 32 0 -8
BITMAP
000000
000000
000000
000000
00c000
00c000
00c000
00c000
00c000
00c000
000000
000000
000000
000000
000000
000000
000000
000000
000000
000000
000000
000000
000000
000000
000000
000000
000000
000000
000000
000000
000000
000000
ENDCHAR
STARTCHAR quotedbl
ENCODING 19
SWIDTH 563 0
DWIDTH 18 0
BBX 18 32 0 -8
BITMAP
000000
000000
000000
000000
0c3000
0c3000
0c3000
0c3000
0c3000
0c3000
000000
000000
000000
000000
000000
000000
000000
000000
000000
000000
000000
000000
000000
000000
000000
000000
000000
000000
000000
000000
000000
000000
ENDCHAR
STARTCHAR slash
ENCODING 20
SWIDTH 563 0
DWIDTH 18 0
BBX 18 32 0 -8
BITMAP
000000
000000
000000
000000
000000
000000
000000
000000
000300
000700
000e00
001c00
003800
007000
00e000
01c000
038000
070000
0e0000
1c0000
380000
300000
000000
000000
000000
000000
000000
000000
000000
000000
000000
000000
ENDCHAR
STARTCHAR backslash
ENCODING 21
SWIDTH 563 0
DWIDTH 18 0
BBX 18 32 0 -8
BITMAP
000000
000000
000000
000000
000000
000000
000000
000000
300000
380000
1c0000
0e0000
070000
038000
01c000
00e000
007000
003800
001c00
000e00
000700
000300
000000
000000
000000
000000
000000
000000
000000
000000
000000
000000
ENDCHAR
STARTCHAR bar
ENCODING 22
SWIDTH 563 0
DWIDTH 18 0
BBX 18 32 0 -8
BITMAP
000000
000000
00c000
00c000
00c000
00c000
00c000
00c000
00c000
00c000
00c000
00c000
00c000
00c000
00c000
00c000
00c000
00c000
00c000
00c000
00c000
00c000
00c000
00c000
00c000
00c000
00c000
00c000
000000
000000
000000
000000
ENDCHAR
STARTCHAR brokenbar
ENCODING 23
SWIDTH 563 0
DWIDTH 18 0
BBX 18 32 0 -8
BITMAP
000000
000000
000000
000000
00c000
00c000
00c000
00c000
00c000
00c000
00c000
00c000
00c000
00c000
000000
000000
000000
000000
00c000
00c000
00c000
00c000
00c000
00c000
00c000
00c000
00c000
00c000
000000
000000
000000
000000
ENDCHAR
STARTCHAR question
ENCODING 24
SWIDTH 563 0
DWIDTH 18 0
BBX 18 32 0 -8
BITMAP
000000
000000
000000
000000
03fc00
07fe00
0e0700
0c0300
0c0300
0c0700
000e00
001c00
003800
007000
00e000
00c000
00c000
00c000
000000
000000
000000
000000
00c000
00c000
000000
000000
000000
000000
000000
000000
000000
000000
ENDCHAR
STARTCHAR exclam
ENCODING 25
SWIDTH 563 0
DWIDTH 18 0
BBX 18 32 0 -8
BITMAP
000000
000000
000000
000000
00c000
00c000
00c000
00c000
00c000
00c000
00c000
00c000
00c000
00c000
00c000
00c000
00c000
00c000
000000
000000
000000
000000
00c000
00c000
000000
000000
000000
000000
000000
000000
000000
000000
ENDCHAR
STARTCHAR dollar
ENCODING 26
SWIDTH 563 0
DWIDTH 18 0
BBX 18 32 0 -8
BITMAP
000000
000000
000000
000000
00c000
00c000
00c000
00c000
0fff00
1fff00
38c000
30c000
30c000
38c000
1ffc00
0ffe00
00c700
00c300
00c300
00c700
3ffe00
3ffc00
00c000
00c000
00c000
00c000
000000
000000
000000
000000
000000
000000
ENDCHAR
STARTCHAR cent
ENCODING 27
SWIDTH 563 0
DWIDTH 18 0
BBX 18 32 0 -8
BITMAP
000000
000000
000000
000000
00c000
00c000
00c000
00c000
0ffc00
1ffc00
38c000
30c000
30c000
30c000
30c000
38c000
1ffc00
0ffc00
00c000
00c000
00c000
00c000
000000
000000
000000
000000
000000
000000
000000
000000
000000
000000
ENDCHAR
STARTCHAR sterling
ENCODING 28
SWIDTH 563 0
DWIDTH 18 0
BBX 18 32 0 -8
BITMAP
000000
000000
000000
000000
00f000
01f800
039c00
030c00
030000
030000
030000
030000
3ff000
3ff000
030000
030000
030000
030000
030000
030000
3f0300
3f8700
3ffe00
3cfc00
000000
000000
000000
000000
000000
000000
000000
000000
ENDCHAR
STARTCHAR yen
ENCODING 29
SWIDTH 563 0
DWIDTH 18 0
BBX 18 32 0 -8
BITMAP
000000
000000
000000
000000
300300
380700
1c0e00
0e1c00
073800
03f000
01e000
00c000
3fff00
3fff00
00c000
00c000
00c000
00c000
3fff00
3fff00
00c000
00c000
00c000
00c000
000000
000000
000000
000000
000000
000000
000000
000000
ENDCHAR
STARTCHAR paragraph
ENCODING 30
SWIDTH 563 0
DWIDTH 18 0
BBX 18 32 0 -8
BITMAP
000000
000000
000000
000000
3fc000
3fe000
307000
303000
303000
303000
303000
307000
3fe000
3fc000
300000
300000
303000
303000
30fc00
30fc00
303000
303000
303000
303000
003000
003000
000000
000000
000000
000000
000000
000000
ENDCHAR
STARTCHAR currency
ENCODING 31
SWIDTH 563 0
DWIDTH 18 0
BBX 18 32 0 -8
BITMAP
000000
000000
000000
000000
000000
000000
300300
380700
1c0e00
0e1c00
07f800
03f000
061800
0c0c00
0c0c00
0c0c00
0c0c00
061800
03f000
07f800
0e1c00
1c0e00
380700
300300
000000
000000
000000
000000
000000
000000
000000
000000
ENDCHAR
STARTCHAR 0
ENCODING 32
SWIDTH 563 0
DWIDTH 18 0
BBX 18 32 0 -8
BITMAP
000000
000000
000000
000000
03f000
07f800
0e1c00
1c0e00
380700
300300
300300
300300
30c300
30c300
30c300
30c300
300300
300300
300300
380700
1c0e00
0e1c00
07f800
03f000
000000
000000
000000
000000
000000
000000
000000
000000
ENDCHAR
STARTCHAR 1
ENCODING 33
SWIDTH 563 0
DWIDTH 18 0
BBX 18 32 0 -8
BITMAP
000000
000000
000000
000000
00c000
01c000
03c000
07c000
0ec000
0cc000
00c000
00c000
00c000
00c000
00c000
00c000
00c000
00c000
00c000
00c000
00c000
00c000
00c000
00c000
000000
000000
000000
000000
000000
000000
000000
000000
ENDCHAR
STARTCHAR 2
ENCODING 34
SWIDTH 563 0
DWIDTH 18 0
BBX 18 32 0 -8
BITMAP
000000
000000
000000
000000
03fc00
07fe00
0e0700
1c0300
380300
300300
000300
000700
000e00
001c00
003800
007000
00e000
01c000
038000
070000
0e0000
1c0000
3fff00
3fff00
000000
000000
000000
000000
000000
000000
000000
000000
ENDCHAR
STARTCHAR 3
ENCODING 35
SWIDTH 563 0
DWIDTH 18 0
BBX 18 32 0 -8
BITMAP
000000
000000
000000
000000
0fff00
0fff00
000300
000700
000e00
001c00
003800
007000
00f000
01f800
001c00
000e00
000700
000300
000300
000700
300e00
381c00
1ff800
0ff000
000000
000000
000000
000000
000000
000000
000000
000000
ENDCHAR
STARTCHAR 4
ENCODING 36
SWIDTH 563 0
DWIDTH 18 0
BBX 18 32 0 -8
BITMAP
000000
000000
000000
000000
003c00
007c00
00ec00
01cc00
038c00
070c00
0e0c00
1c0c00
380c00
300c00
300c00
300c00
3fff00
3fff00
000c00
000c00
000c00
000c00
000c00
000c00
000000
000000
000000
000000
000000
000000
000000
000000
ENDCHAR
STARTCHAR 5
ENCODING 37
SWIDTH 563 0
DWIDTH 18 0
BBX 18 32 0 -8
BITMAP
000000
000000
000000
000000
3fff00
3fff00
300000
300000
300000
300000
3ff000
3ff800
001c00
000e00
000700
000300
000300
000300
000300
000700
000e00
001c00
3ff800
3ff000
000000
000000
000000
000000
000000
000000
000000
000000
ENDCHAR
STARTCHAR 6
ENCODING 38
SWIDTH 563 0
DWIDTH 18 0
BBX 18 32 0 -8
BITMAP
000000
000000
000000
000000
030000
070000
0e0000
1c0000
380000
300000
300000
300000
33f000
37f800
3e1c00
3c0e00
380700
300300
300300
380700
1c0e00
0e1c00
07f800
03f000
000000
000000
000000
000000
000000
000000
000000
000000
ENDCHAR
STARTCHAR 7
ENCODING 39
SWIDTH 563 0
DWIDTH 18 0
BBX 18 32 0 -8
BITMAP
000000
000000
000000
000000
3fff00
3fff00
000300
000700
000e00
001c00
003800
007000
00e000
01c000
038000
030000
030000
030000
030000
030000
030000
030000
030000
030000
000000
000000
000000
000000
000000
000000
000000
000000
ENDCHAR
STARTCHAR 8
ENCODING 40
SWIDTH 563 0
DWIDTH 18 0
BBX 18 32 0 -8
BITMAP
000000
000000
000000
000000
03f000
07f800
0e1c00
0c0c00
0c0c00
0c0c00
0c0c00
0e1c00
07f800
07f800
0e1c00
1c0e00
380700
300300
300300
380700
1c0e00
0e1c00
07f800
03f000
000000
000000
000000
000000
000000
000000
000000
000000
ENDCHAR
STARTCHAR 9
ENCODING 41
SWIDTH 563 0
DWIDTH 18 0
BBX 18 32 0 -8
BITMAP
000000
000000
000000
000000
03fc00
07fe00
0e0700
1c0300
380300
300700
300f00
301f00
303b00
387300
1fe300
0fc300
000300
000300
000300
000300
000300
000700
000e00
000c00
000000
000000
000000
000000
000000
000000
000000
000000
ENDCHAR
STARTCHAR ssharp
ENCODING 42
SWIDTH 563 0
DWIDTH 18 0
BBX 18 32 0 -8
BITMAP
000000
000000
000000
000000
03c000
07e000
0e7000
1c3000
383000
307000
30e000
31e000
307000
303800
301c00
300e00
300700
300300
300300
300300
330300
338700
31fe00
30fc00
000000
000000
000000
000000
000000
000000
000000
000000
ENDCHAR
STARTCHAR section
ENCODING 43
SWIDTH 563 0
DWIDTH 18 0
BBX 18 32 0 -8
BITMAP
000000
000000
000000
000000
03f000
07f000
0e0000
0c0000
0c0000
1e0000
3f0000
338000
31c000
30e000
307000
383800
1c1c00
0e0c00
070c00
038c00
01cc00
00fc00
007800
003000
003000
007000
0fe000
0fc000
000000
000000
000000
000000
ENDCHAR
STARTCHAR numbersign
ENCODING 44
SWIDTH 563 0
DWIDTH 18 0
BBX 18 32 0 -8
BITMAP
000000
000000
000000
000000
000000
000000
0c3000
0c3000
3ffc00
3ffc00
0c3000
0c3000
0c3000
0c3000
3ffc00
3ffc00
0c3000
0c3000
000000
000000
000000
000000
000000
000000
000000
000000
000000
000000
000000
000000
000000
000000
ENDCHAR
STARTCHAR at
ENCODING 45
SWIDTH 563 0
DWIDTH 18 0
BBX 18 32 0 -8
BITMAP
000000
000000
000000
000000
0ffc00
1ffe00
380700
300300
300300
300300
30f300
31f300
333300
333700
33fe00
33fc00
300000
300000
300000
300000
300000
380000
1fff00
0fff00
000000
000000
000000
000000
000000
000000
000000
000000
ENDCHAR
STARTCHAR percent
ENCODING 46
SWIDTH 563 0
DWIDTH 18 0
BBX 18 32 0 -8
BITMAP
000000
000000
000000
000000
0c0000
1e0000
330000
330000
1e0300
0c0700
000e00
001c00
003800
007000
00e000
01c000
038000
070000
0e0000
1c0000
380c00
301e00
003300
003300
001e00
000c00
000000
000000
000000
000000
000000
000000
ENDCHAR
STARTCHAR underscore
ENCODING 47
SWIDTH 563 0
DWIDTH 18 0
BBX 18 32 0 -8
BITMAP
000000
000000
000000
000000
000000
000000
000000
000000
000000
000000
000000
000000
000000
000000
000000
000000
000000
000000
000000
000000
000000
000000
000000
000000
3fff00
3fff00
000000
000000
000000
000000
000000
000000
ENDCHAR
STARTCHAR ampersand
ENCODING 48
SWIDTH 563 0
DWIDTH 18 0
BBX 18 32 0 -8
BITMAP
000000
000000
000000
000000
000000
000000
0f0000
1f8000
39c000
30c000
30c000
30c000
30c000
39c000
1f8000
1f0000
330300
338700
31ce00
30fc00
307800
387800
1ffc00
0fce00
000700
000300
000000
000000
000000
000000
000000
000000
ENDCHAR
STARTCHAR minus
ENCODING 49
SWIDTH 563 0
DWIDTH 18 0
BBX 18 32 0 -8
BITMAP
000000
000000
000000
000000
000000
000000
000000
000000
000000
000000
000000
000000
000000
000000
0ffc00
0ffc00
000000
000000
000000
000000
000000
000000
000000
000000
000000
000000
000000
000000
000000
000000
000000
000000
ENDCHAR
STARTCHAR period
ENCODING 50
SWIDTH 563 0
DWIDTH 18 0
BBX 18 32 0 -8
BITMAP
000000
000000
000000
000000
000000
000000
000000
000000
000000
000000
000000
000000
000000
000000
000000
000000
000000
000000
000000
000000
03c000
03c000
03c000
03c000
000000
000000
000000
000000
000000
000000
000000
000000
ENDCHAR
STARTCHAR comma
ENCODING 51
SWIDTH 563 0
DWIDTH 18 0
BBX 18 32 0 -8
BITMAP
000000
000000
000000
000000
000000
000000
000000
000000
000000
000000
000000
000000
000000
000000
000000
000000
000000
000000
000000
000000
00f000
00f000
00f000
01f000
03e000
07c000
0f8000
0f0000
000000
000000
000000
000000
ENDCHAR
STARTCHAR colon
ENCODING 52
SWIDTH 563 0
DWIDTH 18 0
BBX 18 32 0 -8
BITMAP
000000
000000
000000
000000
000000
000000
000000
000000
000000
000000
000000
000000
03c000
03c000
03c000
03c000
000000
000000
000000
000000
03c000
03c000
03c000
03c000
000000
000000
000000
000000
000000
000000
000000
000000
ENDCHAR
STARTCHAR plus
ENCODING 53
SWIDTH 563 0
DWIDTH 18 0
BBX 18 32 0 -8
BITMAP
000000
000000
000000
000000
000000
000000
000000
000000
00c000
00c000
00c000
00c000
00c000
00c000
3fff00
3fff00
00c000
00c000
00c000
00c000
00c000
00c000
000000
000000
000000
000000
000000
000000
000000
000000
000000
000000
ENDCHAR
STARTCHAR notsign
ENCODING 54
SWIDTH 563 0
DWIDTH 18 0
BBX 18 32 0 -8
BITMAP
000000
000000
000000
000000
000000
000000
3fff00
3fff00
000300
000300
000300
000300
000000
000000
000000
000000
000000
000000
000000
000000
000000
000000
000000
000000
000000
000000
000000
000000
000000
000000
000000
000000
ENDCHAR
STARTCHAR macron
ENCODING 55
SWIDTH 563 0
DWIDTH 18 0
BBX 18 32 0 -8
BITMAP
000000
000000
000000
000000
3fff00
3fff00
000000
000000
000000
000000
000000
000000
000000
000000
000000
000000
000000
000000
000000
000000
000000
000000
000000
000000
000000
000000
000000
000000
000000
000000
000000
000000
ENDCHAR
STARTCHAR degree
ENCODING 56
SWIDTH 563 0
DWIDTH 18 0
BBX 18 32 0 -8
BITMAP
000000
000000
000000
000000
03c000
07e000
0e7000
0c3000
0c3000
0e7000
07e000
03c000
000000
000000
000000
000000
000000
000000
000000
000000
000000
000000
000000
000000
000000
000000
000000
000000
000000
000000
000000
000000
ENDCHAR
STARTCHAR periodcentered
ENCODING 57
SWIDTH 563 0
DWIDTH 18 0
BBX 18 32 0 -8
BITMAP
000000
000000
000000
000000
000000
000000
000000
000000
000000
000000
000000
000000
000000
000000
03c000
03c000
03c000
03c000
000000
000000
000000
000000
000000
000000
000000
000000
000000
000000
000000
000000
000000
000000
ENDCHAR
STARTCHAR asciicircum
ENCODING 58
SWIDTH 563 0
DWIDTH 18 0
BBX 18 32 0 -8
BITMAP
000000
000000
000000
000000
00c000
01e000
03f000
073800
0e1c00
0c0c00
000000
000000
000000
000000
000000
000000
000000
000000
000000
000000
000000
000000
000000
000000
000000
000000
000000
000000
000000
000000
000000
000000
ENDCHAR
STARTCHAR asciitilde
ENCODING 59
SWIDTH 563 0
DWIDTH 18 0
BBX 18 32 0 -8
BITMAP
000000
000000
000000
000000
0f0000
1f8000
39c300
30e700
007e00
003c00
000000
000000
000000
000000
000000
000000
000000
000000
000000
000000
000000
000000
000000
000000
000000
000000
000000
000000
000000
000000
000000
000000
ENDCHAR
STARTCHAR diaeresis
ENCODING 60
SWIDTH 563 0
DWIDTH 18 0
BBX 18 32 0 -8
BITMAP
000000
000000
000000
000000
3c0f00
3c0f00
3c0f00
3c0f00
000000
000000
000000
000000
000000
000000
000000
000000
000000
000000
000000
000000
000000
000000
000000
000000
000000
000000
000000
000000
000000
000000
000000
000000
ENDCHAR
STARTCHAR grave
ENCODING 61
SWIDTH 563 0
DWIDTH 18 0
BBX 18 32 0 -8
BITMAP
000000
000000
000000
000000
030000
038000
01c000
00e000
007000
003000
000000
000000
000000
000000
000000
000000
000000
000000
000000
000000
000000
000000
000000
000000
000000
000000
000000
000000
000000
000000
000000
000000
ENDCHAR
STARTCHAR acute
ENCODING 62
SWIDTH 563 0
DWIDTH 18 0
BBX 18 32 0 -8
BITMAP
000000
000000
000000
000000
003000
007000
00e000
01c000
038000
030000
000000
000000
000000
000000
000000
000000
000000
000000
000000
000000
000000
000000
000000
000000
000000
000000
000000
000000
000000
000000
000000
000000
ENDCHAR
STARTCHAR cedilla
ENCODING 63
SWIDTH 563 0
DWIDTH 18 0
BBX 18 32 0 -8
BITMAP
000000
000000
000000
000000
000000
000000
000000
000000
000000
000000
000000
000000
000000
000000
000000
000000
000000
000000
000000
000000
00c000
00c000
00c000
00c000
00c000
01c000
0f8000
0f0000
000000
000000
000000
000000
ENDCHAR
STARTCHAR agrave
ENCODING 64
SWIDTH 563 0
DWIDTH 18 0
BBX 18 32 0 -8
BITMAP
000000
000000
0c0000
0e0000
070000
038000
01c000
00c000
000000
000000
0ff000
0ff800
001c00
000c00
000c00
000c00
0ffc00
1ffc00
380c00
300c00
300c00
380c00
1fff00
0fff00
000000
000000
000000
000000
000000
000000
000000
000000
ENDCHAR
STARTCHAR egrave
ENCODING 65
SWIDTH 563 0
DWIDTH 18 0
BBX 18 32 0 -8
BITMAP
000000
000000
0c0000
0e0000
070000
038000
01c000
00c000
000000
000000
0ff000
1ff800
381c00
300c00
300c00
300c00
3ffc00
3ffc00
300000
300000
300000
380000
1ffc00
0ffc00
000000
000000
000000
000000
000000
000000
000000
000000
ENDCHAR
STARTCHAR igrave
ENCODING 66
SWIDTH 563 0
DWIDTH 18 0
BBX 18 32 0 -8
BITMAP
000000
000000
030000
038000
01c000
00e000
007000
003000
000000
000000
000000
000000
00c000
00c000
00c000
00c000
00c000
00c000
00c000
00c000
00c000
00c000
00c000
00c000
000000
000000
000000
000000
000000
000000
000000
000000
ENDCHAR
STARTCHAR ograve
ENCODING 67
SWIDTH 563 0
DWIDTH 18 0
BBX 18 32 0 -8
BITMAP
000000
000000
0c0000
0e0000
070000
038000
01c000
00c000
000000
000000
0ff000
1ff800
381c00
300c00
300c00
300c00
300c00
300c00
300c00
300c00
300c00
381c00
1ff800
0ff000
000000
000000
000000
000000
000000
000000
000000
000000
ENDCHAR
STARTCHAR ugrave
ENCODING 68
SWIDTH 563 0
DWIDTH 18 0
BBX 18 32 0 -8
BITMAP
000000
000000
0c0000
0e0000
070000
038000
01c000
00c000
000000
000000
300c00
300c00
300c00
300c00
300c00
300c00
300c00
300c00
300c00
300c00
300c00
381c00
1fff00
0ff300
000000
000000
000000
000000
000000
000000
000000
000000
ENDCHAR
STARTCHAR atilde
ENCODING 69
SWIDTH 563 0
DWIDTH 18 0
BBX 18 32 0 -8
BITMAP
000000
000000
000000
000000
03c300
07e700
0e7e00
0c3c00
000000
000000
0ff000
0ff800
001c00
000c00
000c00
000c00
0ffc00
1ffc00
380c00
300c00
300c00
380c00
1fff00
0fff00
000000
000000
000000
000000
000000
000000
000000
000000
ENDCHAR
STARTCHAR otilde
ENCODING 70
SWIDTH 563 0
DWIDTH 18 0
BBX 18 32 0 -8
BITMAP
000000
000000
000000
000000
0f0c00
1f9c00
39f800
30f000
000000
000000
0ff000
1ff800
381c00
300c00
300c00
300c00
300c00
300c00
300c00
300c00
300c00
381c00
1ff800
0ff000
000000
000000
000000
000000
000000
000000
000000
000000
ENDCHAR
STARTCHAR ydiaeresis
ENCODING 71
SWIDTH 563 0
DWIDTH 18 0
BBX 18 32 0 -8
BITMAP
000000
000000
000000
000000
0c3000
0c3000
000000
000000
000000
000000
300c00
300c00
300c00
300c00
300c00
300c00
300c00
380c00
1c0c00
0e1c00
073800
03f000
01e000
01c000
038000
070000
0e0000
1c0000
380000
300000
000000
000000
ENDCHAR
STARTCHAR Yacute
ENCODING 72
SWIDTH 563 0
DWIDTH 18 0
BBX 18 32 0 -8
BITMAP
000000
000000
000c00
001c00
003800
007000
00e000
00c000
300300
380700
1c0e00
0e1c00
073800
03f000
01e000
00c000
00c000
00c000
00c000
00c000
00c000
00c000
00c000
00c000
000000
000000
000000
000000
000000
000000
000000
000000
ENDCHAR
STARTCHAR yacute
ENCODING 73
SWIDTH 563 0
DWIDTH 18 0
BBX 18 32 0 -8
BITMAP
000000
000000
000c00
001c00
003800
007000
00e000
00c000
000000
000000
300c00
300c00
300c00
300c00
300c00
300c00
300c00
380c00
1c0c00
0e1c00
073800
03f000
01e000
01c000
038000
070000
0e0000
1c0000
380000
300000
000000
000000
ENDCHAR
STARTCHAR eacute
ENCODING 74
SWIDTH 563 0
DWIDTH 18 0
BBX 18 32 0 -8
BITMAP
000000
000000
000c00
001c00
003800
007000
00e000
00c000
000000
000000
0ff000
1ff800
381c00
300c00
300c00
300c00
3ffc00
3ffc00
300000
300000
300000
380000
1ffc00
0ffc00
000000
000000
000000
000000
000000
000000
000000
000000
ENDCHAR
STARTCHAR onequarter
ENCODING 75
SWIDTH 563 0
DWIDTH 18 0
BBX 18 32 0 -8
BITMAP
000000
000000
000000
060000
0e0000
1e0000
060000
060300
060700
060e00
061c00
063800
007000
00e000
01c000
038700
070f00
0e1f00
1c3b00
383300
303f80
003f80
000300
000300
000000
000000
000000
000000
000000
000000
000000
000000
ENDCHAR
STARTCHAR onehalf
ENCODING 76
SWIDTH 563 0
DWIDTH 18 0
BBX 18 32 0 -8
BITMAP
000000
000000
000000
060000
0e0000
1e0000
060000
060300
060700
060e00
061c00
063800
007000
00e000
01c000
038f00
071f80
0e1980
1c0380
380700
300e00
001c00
001f80
001f80
000000
000000
000000
000000
000000
000000
000000
000000
ENDCHAR
STARTCHAR threequarters
ENCODING 77
SWIDTH 563 0
DWIDTH 18 0
BBX 18 32 0 -8
BITMAP
000000
000000
000000
3f0000
3f0000
070000
0e0000
1e0300
070700
030e00
331c00
3f3800
1e7000
00e000
01c000
038700
070f00
0e1f00
1c3b00
383300
303f80
003f80
000300
000300
000000
000000
000000
000000
000000
000000
000000
000000
ENDCHAR
STARTCHAR udiaeresis
ENCODING 78
SWIDTH 563 0
DWIDTH 18 0
BBX 18 32 0 -8
BITMAP
000000
000000
000000
000000
0c3000
0c3000
000000
000000
000000
000000
300c00
300c00
300c00
300c00
300c00
300c00
300c00
300c00
300c00
300c00
300c00
381e00
1fff00
0ff300
000000
000000
000000
000000
000000
000000
000000
000000
ENDCHAR
STARTCHAR ccedilla
ENCODING 79
SWIDTH 563 0
DWIDTH 18 0
BBX 18 32 0 -8
BITMAP
000000
000000
000000
000000
000000
000000
000000
000000
000000
000000
03fc00
07fc00
0e0000
1c0000
380000
300000
300000
300000
300000
380000
1c0000
0e0000
07fc00
03fc00
00e000
00c000
0fc000
0f8000
000000
000000
000000
000000
ENDCHAR
STARTCHAR adiaeresis
ENCODING 80
SWIDTH 563 0
DWIDTH 18 0
BBX 18 32 0 -8
BITMAP
000000
000000
000000
000000
0c3000
0c3000
000000
000000
000000
000000
0ff000
0ff800
001c00
000c00
000c00
000c00
0ffc00
1ffc00
380c00
300c00
300c00
380c00
1fff00
0fff00
000000
000000
000000
000000
000000
000000
000000
000000
ENDCHAR
STARTCHAR ediaeresis
ENCODING 81
SWIDTH 563 0
DWIDTH 18 0
BBX 18 32 0 -8
BITMAP
000000
000000
000000
000000
0c3000
0c3000
000000
000000
000000
000000
0ff000
1ff800
381c00
300c00
300c00
300c00
3ffc00
3ffc00
300000
300000
300000
380000
1ffc00
0ffc00
000000
000000
000000
000000
000000
000000
000000
000000
ENDCHAR
STARTCHAR idiaeresis
ENCODING 82
SWIDTH 563 0
DWIDTH 18 0
BBX 18 32 0 -8
BITMAP
000000
000000
000000
000000
0c0c00
0c0c00
000000
000000
000000
000000
00c000
00c000
00c000
00c000
00c000
00c000
00c000
00c000
00c000
00c000
00c000
00c000
00c000
00c000
000000
000000
000000
000000
000000
000000
000000
000000
ENDCHAR
STARTCHAR odiaeresis
ENCODING 83
SWIDTH 563 0
DWIDTH 18 0
BBX 18 32 0 -8
BITMAP
000000
000000
000000
000000
0c3000
0c3000
000000
000000
000000
000000
0ff000
1ff800
381c00
300c00
300c00
300c00
300c00
300c00
300c00
300c00
300c00
381c00
1ff800
0ff000
000000
000000
000000
000000
000000
000000
000000
000000
ENDCHAR
STARTCHAR mu
ENCODING 84
SWIDTH 563 0
DWIDTH 18 0
BBX 18 32 0 -8
BITMAP
000000
000000
000000
000000
000000
000000
000000
000000
000000
000000
300c00
300c00
300c00
300c00
300c00
300c00
300c00
300c00
300c00
300c00
300c00
3c1e00
3fff00
37f300
300000
300000
300000
300000
300000
300000
000000
000000
ENDCHAR
STARTCHAR acircumflex
ENCODING 85
SWIDTH 563 0
DWIDTH 18 0
BBX 18 32 0 -8
BITMAP
000000
000000
000000
000000
00c000
01e000
03f000
033000
000000
000000
0ff000
0ff800
001c00
000c00
000c00
000c00
0ffc00
1ffc00
380c00
300c00
300c00
380c00
1fff00
0fff00
000000
000000
000000
000000
000000
000000
000000
000000
ENDCHAR
STARTCHAR ecircumflex
ENCODING 86
SWIDTH 563 0
DWIDTH 18 0
BBX 18 32 0 -8
BITMAP
000000
000000
000000
000000
00c000
01e000
03f000
033000
000000
000000
0ff000
1ff800
381c00
300c00
300c00
300c00
3ffc00
3ffc00
300000
300000
300000
380000
1ffc00
0ffc00
000000
000000
000000
000000
000000
000000
000000
000000
ENDCHAR
STARTCHAR icircumflex
ENCODING 87
SWIDTH 563 0
DWIDTH 18 0
BBX 18 32 0 -8
BITMAP
000000
000000
000000
000000
00c000
01e000
03f000
033000
000000
000000
000000
000000
00c000
00c000
00c000
00c000
00c000
00c000
00c000
00c000
00c000
00c000
00c000
00c000
000000
000000
000000
000000
000000
000000
000000
000000
ENDCHAR
STARTCHAR ocircumflex
ENCODING 88
SWIDTH 563 0
DWIDTH 18 0
BBX 18 32 0 -8
BITMAP
000000
000000
000000
000000
00c000
01e000
03f000
033000
000000
000000
03f000
07f800
0e1c00
0c0c00
0c0c00
0c0c00
0c0c00
0c0c00
0c0c00
0c0c00
0c0c00
0e1c00
07f800
03f000
000000
000000
000000
000000
000000
000000
000000
000000
ENDCHAR
STARTCHAR ucircumflex
ENCODING 89
SWIDTH 563 0
DWIDTH 18 0
BBX 18 32 0 -8
BITMAP
000000
000000
000000
000000
030000
078000
0fc000
0cc000
000000
000000
303000
303000
303000
303000
303000
303000
303000
303000
303000
303000
303000
387800
1ffc00
0fcc00
000000
000000
000000
000000
000000
000000
000000
000000
ENDCHAR
STARTCHAR aacute
ENCODING 90
SWIDTH 563 0
DWIDTH 18 0
BBX 18 32 0 -8
BITMAP
000000
000000
000c00
001c00
003800
007000
00e000
00c000
000000
000000
0ff000
0ff800
001c00
000c00
000c00
000c00
0ffc00
1ffc00
380c00
300c00
300c00
380c00
1fff00
0fff00
000000
000000
000000
000000
000000
000000
000000
000000
ENDCHAR
STARTCHAR multiply
ENCODING 91
SWIDTH 563 0
DWIDTH 18 0
BBX 18 32 0 -8
BITMAP
000000
000000
000000
000000
000000
000000
000000
000000
000000
000000
0c0c00
0e1c00
073800
03f000
01e000
01e000
03f000
073800
0e1c00
0c0c00
000000
000000
000000
000000
000000
000000
000000
000000
000000
000000
000000
000000
ENDCHAR
STARTCHAR iacute
ENCODING 92
SWIDTH 563 0
DWIDTH 18 0
BBX 18 32 0 -8
BITMAP
000000
000000
003000
007000
00e000
01c000
038000
030000
000000
000000
000000
000000
00c000
00c000
00c000
00c000
00c000
00c000
00c000
00c000
00c000
00c000
00c000
00c000
000000
000000
000000
000000
000000
000000
000000
000000
ENDCHAR
STARTCHAR oacute
ENCODING 93
SWIDTH 563 0
DWIDTH 18 0
BBX 18 32 0 -8
BITMAP
000000
000000
003000
007000
00e000
01c000
038000
030000
000000
000000
0ff000
1ff800
381c00
300c00
300c00
300c00
300c00
300c00
300c00
300c00
300c00
381c00
1ff800
0ff000
000000
000000
000000
000000
000000
000000
000000
000000
ENDCHAR
STARTCHAR uacute
ENCODING 94
SWIDTH 563 0
DWIDTH 18 0
BBX 18 32 0 -8
BITMAP
000000
000000
003000
007000
00e000
01c000
038000
030000
000000
000000
300c00
300c00
300c00
300c00
300c00
300c00
300c00
300c00
300c00
300c00
300c00
381e00
1fff00
0ff300
000000
000000
000000
000000
000000
000000
000000
000000
ENDCHAR
STARTCHAR ntilde
ENCODING 95
SWIDTH 563 0
DWIDTH 18 0
BBX 18 32 0 -8
BITMAP
000000
000000
000000
000000
03c300
07e700
0e7e00
0c3c00
000000
000000
33fc00
3ffe00
1e0700
0c0300
0c0300
0c0300
0c0300
0c0300
0c0300
0c0300
0c0300
0c0300
0c0300
0c0300
000000
000000
000000
000000
000000
000000
000000
000000
ENDCHAR
STARTCHAR Agrave
ENCODING 96
SWIDTH 563 0
DWIDTH 18 0
BBX 18 32 0 -8
BITMAP
000000
000000
00c000
00e000
007000
003800
001c00
000c00
00c000
01e000
03f000
073800
0e1c00
1c0e00
380700
300300
3fff00
3fff00
300300
300300
300300
300300
300300
300300
000000
000000
000000
000000
000000
000000
000000
000000
ENDCHAR
STARTCHAR Egrave
ENCODING 97
SWIDTH 563 0
DWIDTH 18 0
BBX 18 32 0 -8
BITMAP
000000
000000
0c0000
0e0000
070000
038000
01c000
00c000
3fff00
3fff00
300000
300000
300000
300000
3ff000
3ff000
300000
300000
300000
300000
300000
300000
3fff00
3fff00
000000
000000
000000
000000
000000
000000
000000
000000
ENDCHAR
STARTCHAR Igrave
ENCODING 98
SWIDTH 563 0
DWIDTH 18 0
BBX 18 32 0 -8
BITMAP
000000
000000
030000
038000
01c000
00e000
007000
003000
000000
000000
03f000
03f000
00c000
00c000
00c000
00c000
00c000
00c000
00c000
00c000
00c000
00c000
03f000
03f000
000000
000000
000000
000000
000000
000000
000000
000000
ENDCHAR
STARTCHAR Ograve
ENCODING 99
SWIDTH 563 0
DWIDTH 18 0
BBX 18 32 0 -8
BITMAP
000000
000000
0c0000
0e0000
070000
038000
01c000
00c000
0ffc00
1ffe00
380700
300300
300300
300300
300300
300300
300300
300300
300300
300300
300300
380700
1ffe00
0ffc00
000000
000000
000000
000000
000000
000000
000000
000000
ENDCHAR
STARTCHAR Ugrave
ENCODING 100
SWIDTH 563 0
DWIDTH 18 0
BBX 18 32 0 -8
BITMAP
000000
000000
0c0000
0e0000
070000
038000
01c000
00c000
300300
300300
300300
300300
300300
300300
300300
300300
300300
300300
300300
300300
300300
380700
1ffe00
0ffc00
000000
000000
000000
000000
000000
000000
000000
000000
ENDCHAR
STARTCHAR Atilde
ENCODING 101
SWIDTH 563 0
DWIDTH 18 0
BBX 18 32 0 -8
BITMAP
000000
000000
000000
000000
03c300
07e700
0e7e00
0c3c00
000000
000000
00c000
01e000
03f000
073800
0e1c00
1c0e00
380700
300300
3fff00
3fff00
300300
300300
300300
300300
000000
000000
000000
000000
000000
000000
000000
000000
ENDCHAR
STARTCHAR Otilde
ENCODING 102
SWIDTH 563 0
DWIDTH 18 0
BBX 18 32 0 -8
BITMAP
000000
000000
03c300
07e700
0e7e00
0c3c00
0ffc00
1ffe00
380700
300300
300300
300300
300300
300300
300300
300300
300300
300300
300300
300300
300300
380700
1ffe00
0ffc00
000000
000000
000000
000000
000000
000000
000000
000000
ENDCHAR
STARTCHAR onesuperior
ENCODING 103
SWIDTH 563 0
DWIDTH 18 0
BBX 18 32 0 -8
BITMAP
000000
000000
000000
000000
00c000
01c000
03c000
07c000
06c000
00c000
00c000
00c000
00c000
00c000
00c000
00c000
00c000
000000
000000
000000
000000
000000
000000
000000
000000
000000
000000
000000
000000
000000
000000
000000
ENDCHAR
STARTCHAR twosuperior
ENCODING 104
SWIDTH 563 0
DWIDTH 18 0
BBX 18 32 0 -8
BITMAP
000000
000000
000000
000000
01e000
03f000
073800
061800
001800
003800
007000
00e000
01c000
038000
070000
07f800
07f800
000000
000000
000000
000000
000000
000000
000000
000000
000000
000000
000000
000000
000000
000000
000000
ENDCHAR
STARTCHAR threesuperior
ENCODING 105
SWIDTH 563 0
DWIDTH 18 0
BBX 18 32 0 -8
BITMAP
000000
000000
000000
000000
07f800
07f800
003800
007000
00e000
01e000
03f000
003800
001800
001800
063800
07f000
03e000
000000
000000
000000
000000
000000
000000
000000
000000
000000
000000
000000
000000
000000
000000
000000
ENDCHAR
STARTCHAR ordfeminine
ENCODING 106
SWIDTH 563 0
DWIDTH 18 0
BBX 18 32 0 -8
BITMAP
000000
000000
000000
000000
000000
000000
0ff000
0ff800
001c00
000c00
000c00
000c00
0ffc00
1ffc00
380c00
300c00
300c00
380c00
1fff00
1fff00
000000
000000
3fff00
3fff00
000000
000000
000000
000000
000000
000000
000000
000000
ENDCHAR
STARTCHAR masculine
ENCODING 107
SWIDTH 563 0
DWIDTH 18 0
BBX 18 32 0 -8
BITMAP
000000
000000
000000
000000
000000
000000
0ff000
1ff800
381c00
300c00
300c00
300c00
300c00
300c00
300c00
300c00
300c00
381c00
1ff800
0ff000
000000
000000
3ffc00
3ffc00
000000
000000
000000
000000
000000
000000
000000
000000
ENDCHAR
STARTCHAR guillemotleft
ENCODING 108
SWIDTH 563 0
DWIDTH 18 0
BBX 18 32 0 -8
BITMAP
000000
000000
000000
000000
000000
000000
000000
00c300
01c700
038e00
071c00
0e3800
1c7000
38e000
71c000
71c000
38e000
1c7000
0e3800
071c00
038e00
01c700
00c300
000000
000000
000000
000000
000000
000000
000000
000000
000000
ENDCHAR
STARTCHAR guillemotright
ENCODING 109
SWIDTH 563 0
DWIDTH 18 0
BBX 18 32 0 -8
BITMAP
000000
000000
000000
000000
000000
000000
000000
30c000
38e000
1c7000
0e3800
071c00
038e00
01c700
00e380
00e380
01c700
038e00
071c00
0e3800
1c7000
38e000
30c000
000000
000000
000000
000000
000000
000000
000000
000000
000000
ENDCHAR
STARTCHAR exclamdown
ENCODING 110
SWIDTH 563 0
DWIDTH 18 0
BBX 18 32 0 -8
BITMAP
000000
000000
000000
000000
00c000
00c000
000000
000000
000000
000000
00c000
00c000
00c000
00c000
00c000
00c000
00c000
00c000
00c000
00c000
00c000
00c000
00c000
00c000
000000
000000
000000
000000
000000
000000
000000
000000
ENDCHAR
STARTCHAR questiondown
ENCODING 111
SWIDTH 563 0
DWIDTH 18 0
BBX 18 32 0 -8
BITMAP
000000
000000
000000
000000
003000
003000
000000
000000
000000
000000
003000
003000
003000
007000
00e000
01c000
038000
070000
0e0300
0c0300
0c0300
0e0700
07fe00
03fc00
000000
000000
000000
000000
000000
000000
000000
000000
ENDCHAR
STARTCHAR Adiaeresis
ENCODING 112
SWIDTH 563 0
DWIDTH 18 0
BBX 18 32 0 -8
BITMAP
000000
000000
0c0c00
0c0c00
000000
000000
00c000
01e000
03f000
073800
0e1c00
1c0e00
380700
300300
300300
300300
3fff00
3fff00
300300
300300
300300
300300
300300
300300
000000
000000
000000
000000
000000
000000
000000
000000
ENDCHAR
STARTCHAR Ediaeresis
ENCODING 113
SWIDTH 563 0
DWIDTH 18 0
BBX 18 32 0 -8
BITMAP
000000
000000
0c0c00
0c0c00
000000
000000
3fff00
3fff00
300000
300000
300000
300000
300000
300000
3ff000
3ff000
300000
300000
300000
300000
300000
300000
3fff00
3fff00
000000
000000
000000
000000
000000
000000
000000
000000
ENDCHAR
STARTCHAR Idiaeresis
ENCODING 114
SWIDTH 563 0
DWIDTH 18 0
BBX 18 32 0 -8
BITMAP
000000
000000
0c0c00
0c0c00
000000
000000
03f000
03f000
00c000
00c000
00c000
00c000
00c000
00c000
00c000
00c000
00c000
00c000
00c000
00c000
00c000
00c000
03f000
03f000
000000
000000
000000
000000
000000
000000
000000
000000
ENDCHAR
STARTCHAR Odiaeresis
ENCODING 115
SWIDTH 563 0
DWIDTH 18 0
BBX 18 32 0 -8
BITMAP
000000
000000
0c0c00
0c0c00
000000
000000
0ffc00
1ffe00
380700
300300
300300
300300
300300
300300
300300
300300
300300
300300
300300
300300
300300
380700
1ffe00
0ffc00
000000
000000
000000
000000
000000
000000
000000
000000
ENDCHAR
STARTCHAR Udiaeresis
ENCODING 116
SWIDTH 563 0
DWIDTH 18 0
BBX 18 32 0 -8
BITMAP
000000
000000
0c0c00
0c0c00
000000
000000
300300
300300
300300
300300
300300
300300
300300
300300
300300
300300
300300
300300
300300
300300
300300
380700
1ffe00
0ffc00
000000
000000
000000
000000
000000
000000
000000
000000
ENDCHAR
STARTCHAR Acircumflex
ENCODING 117
SWIDTH 563 0
DWIDTH 18 0
BBX 18 32 0 -8
BITMAP
000000
000000
00c000
01e000
03f000
033000
000000
000000
00c000
01e000
03f000
073800
0e1c00
1c0e00
380700
300300
3fff00
3fff00
300300
300300
300300
300300
300300
300300
000000
000000
000000
000000
000000
000000
000000
000000
ENDCHAR
STARTCHAR Ecircumflex
ENCODING 118
SWIDTH 563 0
DWIDTH 18 0
BBX 18 32 0 -8
BITMAP
000000
000000
00c000
01e000
03f000
033000
000000
000000
3fff00
3fff00
300000
300000
300000
300000
300000
300000
3ff000
3ff000
300000
300000
300000
300000
3fff00
3fff00
000000
000000
000000
000000
000000
000000
000000
000000
ENDCHAR
STARTCHAR Icircumflex
ENCODING 119
SWIDTH 563 0
DWIDTH 18 0
BBX 18 32 0 -8
BITMAP
000000
000000
00c000
01e000
03f000
033000
000000
000000
03f000
03f000
00c000
00c000
00c000
00c000
00c000
00c000
00c000
00c000
00c000
00c000
00c000
00c000
03f000
03f000
000000
000000
000000
000000
000000
000000
000000
000000
ENDCHAR
STARTCHAR Ocircumflex
ENCODING 120
SWIDTH 563 0
DWIDTH 18 0
BBX 18 32 0 -8
BITMAP
000000
000000
00c000
01e000
03f000
033000
000000
000000
0ffc00
1ffe00
380700
300300
300300
300300
300300
300300
300300
300300
300300
300300
300300
380700
1ffe00
0ffc00
000000
000000
000000
000000
000000
000000
000000
000000
ENDCHAR
STARTCHAR Ucircumflex
ENCODING 121
SWIDTH 563 0
DWIDTH 18 0
BBX 18 32 0 -8
BITMAP
000000
000000
00c000
01e000
03f000
033000
000000
000000
300300
300300
300300
300300
300300
300300
300300
300300
300300
300300
300300
300300
300300
380700
1ffe00
0ffc00
000000
000000
000000
000000
000000
000000
000000
000000
ENDCHAR
STARTCHAR Aacute
ENCODING 122
SWIDTH 563 0
DWIDTH 18 0
BBX 18 32 0 -8
BITMAP
000000
000000
00c000
01c000
038000
070000
0e0000
0c0000
00c000
01e000
03f000
073800
0e1c00
1c0e00
380700
300300
3fff00
3fff00
300300
300300
300300
300300
300300
300300
000000
000000
000000
000000
000000
000000
000000
000000
ENDCHAR
STARTCHAR Eacute
ENCODING 123
SWIDTH 563 0
DWIDTH 18 0
BBX 18 32 0 -8
BITMAP
000000
000000
000c00
001c00
003800
007000
00e000
00c000
3fff00
3fff00
300000
300000
300000
300000
300000
300000
3ff000
3ff000
300000
300000
300000
300000
3fff00
3fff00
000000
000000
000000
000000
000000
000000
000000
000000
ENDCHAR
STARTCHAR Iacute
ENCODING 124
SWIDTH 563 0
DWIDTH 18 0
BBX 18 32 0 -8
BITMAP
000000
000000
003000
007000
00e000
01c000
038000
030000
000000
000000
03f000
03f000
00c000
00c000
00c000
00c000
00c000
00c000
00c000
00c000
00c000
00c000
03f000
03f000
000000
000000
000000
000000
000000
000000
000000
000000
ENDCHAR
STARTCHAR Oacute
ENCODING 125
SWIDTH 563 0
DWIDTH 18 0
BBX 18 32 0 -8
BITMAP
000000
000000
000c00
001c00
003800
007000
00e000
00c000
0ffc00
1ffe00
380700
300300
300300
300300
300300
300300
300300
300300
300300
300300
300300
380700
1ffe00
0ffc00
000000
000000
000000
000000
000000
000000
000000
000000
ENDCHAR
STARTCHAR Uacute
ENCODING 126
SWIDTH 563 0
DWIDTH 18 0
BBX 18 32 0 -8
BITMAP
000000
000000
000c00
001c00
003800
007000
00e000
00c000
300300
300300
300300
300300
300300
300300
300300
300300
300300
300300
300300
300300
300300
380700
1ffe00
0ffc00
000000
000000
000000
000000
000000
000000
000000
000000
ENDCHAR
STARTCHAR Ntilde
ENCODING 127
SWIDTH 563 0
DWIDTH 18 0
BBX 18 32 0 -8
BITMAP
000000
000000
000000
000000
03c300
07e700
0e7e00
0c3c00
000000
000000
300300
380300
3c0300
3e0300
370300
338300
31c300
30e300
307300
303b00
301f00
300f00
300700
300300
000000
000000
000000
000000
000000
000000
000000
000000
ENDCHAR
STARTCHAR a
ENCODING 128
SWIDTH 563 0
DWIDTH 18 0
BBX 18 32 0 -8
BITMAP
000000
000000
000000
000000
000000
000000
000000
000000
000000
000000
0ff000
0ff800
001c00
000c00
000c00
000c00
0ffc00
1ffc00
380c00
300c00
300c00
380c00
1fff00
0fff00
000000
000000
000000
000000
000000
000000
000000
000000
ENDCHAR
STARTCHAR b
ENCODING 129
SWIDTH 563 0
DWIDTH 18 0
BBX 18 32 0 -8
BITMAP
000000
000000
000000
000000
300000
300000
300000
300000
300000
300000
3fc000
3fe000
307000
303800
301c00
300c00
300c00
300c00
300c00
301c00
303800
307000
3fe000
3fc000
000000
000000
000000
000000
000000
000000
000000
000000
ENDCHAR
STARTCHAR c
ENCODING 130
SWIDTH 563 0
DWIDTH 18 0
BBX 18 32 0 -8
BITMAP
000000
000000
000000
000000
000000
000000
000000
000000
000000
000000
03fc00
07fc00
0e0000
1c0000
380000
300000
300000
300000
300000
380000
1c0000
0e0000
07fc00
03fc00
000000
000000
000000
000000
000000
000000
000000
000000
ENDCHAR
STARTCHAR d
ENCODING 131
SWIDTH 563 0
DWIDTH 18 0
BBX 18 32 0 -8
BITMAP
000000
000000
000000
000000
000c00
000c00
000c00
000c00
000c00
000c00
03fc00
07fc00
0e0c00
1c0c00
380c00
300c00
300c00
300c00
300c00
380c00
1c0c00
0e0c00
07fc00
03fc00
000000
000000
000000
000000
000000
000000
000000
000000
ENDCHAR
STARTCHAR e
ENCODING 132
SWIDTH 563 0
DWIDTH 18 0
BBX 18 32 0 -8
BITMAP
000000
000000
000000
000000
000000
000000
000000
000000
000000
000000
0ff000
1ff800
381c00
300c00
300c00
300c00
3ffc00
3ffc00
300000
300000
300000
380000
1ffc00
0ffc00
000000
000000
000000
000000
000000
000000
000000
000000
ENDCHAR
STARTCHAR f
ENCODING 133
SWIDTH 563 0
DWIDTH 18 0
BBX 18 32 0 -8
BITMAP
000000
000000
000000
000000
00fc00
01fc00
038000
030000
030000
030000
3ff000
3ff000
030000
030000
030000
030000
030000
030000
030000
030000
030000
030000
030000
030000
000000
000000
000000
000000
000000
000000
000000
000000
ENDCHAR
STARTCHAR g
ENCODING 134
SWIDTH 563 0
DWIDTH 18 0
BBX 18 32 0 -8
BITMAP
000000
000000
000000
000000
000000
000000
000000
000000
000000
000000
03fc00
07fe00
0e0700
1c0300
380300
300300
300300
380300
1c0f00
0e1f00
07fb00
03f300
000300
000300
0c0300
0e0700
07fe00
03fc00
000000
000000
000000
000000
ENDCHAR
STARTCHAR h
ENCODING 135
SWIDTH 563 0
DWIDTH 18 0
BBX 18 32 0 -8
BITMAP
000000
000000
000000
000000
300000
300000
300000
300000
300000
300000
33f000
37f800
3e1c00
3c0c00
380c00
300c00
300c00
300c00
300c00
300c00
300c00
300c00
300c00
300c00
000000
000000
000000
000000
000000
000000
000000
000000
ENDCHAR
STARTCHAR i
ENCODING 136
SWIDTH 563 0
DWIDTH 18 0
BBX 18 32 0 -8
BITMAP
000000
000000
000000
000000
00c000
00c000
000000
000000
000000
000000
00c000
00c000
00c000
00c000
00c000
00c000
00c000
00c000
00c000
00c000
00c000
00c000
00c000
00c000
000000
000000
000000
000000
000000
000000
000000
000000
ENDCHAR
STARTCHAR j
ENCODING 137
SWIDTH 563 0
DWIDTH 18 0
BBX 18 32 0 -8
BITMAP
000000
000000
000000
000000
000c00
000c00
000000
000000
000000
000000
000c00
000c00
000c00
000c00
000c00
000c00
000c00
000c00
000c00
000c00
000c00
000c00
000c00
000c00
0c0c00
0e1c00
07f800
03f000
000000
000000
000000
000000
ENDCHAR
STARTCHAR k
ENCODING 138
SWIDTH 563 0
DWIDTH 18 0
BBX 18 32 0 -8
BITMAP
000000
000000
000000
000000
0c0000
0c0000
0c0000
0c0000
0c0000
0c0000
0c0c00
0c1c00
0c3800
0c7000
0ce000
0dc000
0f8000
0f8000
0dc000
0ce000
0c7000
0c3800
0c1c00
0c0c00
000000
000000
000000
000000
000000
000000
000000
000000
ENDCHAR
STARTCHAR l
ENCODING 139
SWIDTH 563 0
DWIDTH 18 0
BBX 18 32 0 -8
BITMAP
000000
000000
000000
000000
00c000
00c000
00c000
00c000
00c000
00c000
00c000
00c000
00c000
00c000
00c000
00c000
00c000
00c000
00c000
00c000
00c000
00c000
00f000
00f000
000000
000000
000000
000000
000000
000000
000000
000000
ENDCHAR
STARTCHAR m
ENCODING 140
SWIDTH 563 0
DWIDTH 18 0
BBX 18 32 0 -8
BITMAP
000000
000000
000000
000000
000000
000000
000000
000000
000000
000000
0f3c00
1ffe00
39e700
30c300
30c300
30c300
30c300
30c300
30c300
30c300
30c300
30c300
30c300
30c300
000000
000000
000000
000000
000000
000000
000000
000000
ENDCHAR
STARTCHAR n
ENCODING 141
SWIDTH 563 0
DWIDTH 18 0
BBX 18 32 0 -8
BITMAP
000000
000000
000000
000000
000000
000000
000000
000000
000000
000000
33fc00
3ffe00
0c0700
0c0300
0c0300
0c0300
0c0300
0c0300
0c0300
0c0300
0c0300
0c0300
0c0300
0c0300
000000
000000
000000
000000
000000
000000
000000
000000
ENDCHAR
STARTCHAR o
ENCODING 142
SWIDTH 563 0
DWIDTH 18 0
BBX 18 32 0 -8
BITMAP
000000
000000
000000
000000
000000
000000
000000
000000
000000
000000
0ff000
1ff800
381c00
300c00
300c00
300c00
300c00
300c00
300c00
300c00
300c00
381c00
1ff800
0ff000
000000
000000
000000
000000
000000
000000
000000
000000
ENDCHAR
STARTCHAR p
ENCODING 143
SWIDTH 563 0
DWIDTH 18 0
BBX 18 32 0 -8
BITMAP
000000
000000
000000
000000
000000
000000
000000
000000
000000
000000
3fc000
3fe000
307000
303800
301c00
300c00
300c00
300c00
300c00
301c00
303800
307000
3fe000
3fc000
300000
300000
300000
300000
300000
300000
000000
000000
ENDCHAR
STARTCHAR q
ENCODING 144
SWIDTH 563 0
DWIDTH 18 0
BBX 18 32 0 -8
BITMAP
000000
000000
000000
000000
000000
000000
000000
000000
000000
000000
03fc00
07fc00
0e0c00
1c0c00
380c00
300c00
300c00
380c00
1c0c00
0e0c00
07fc00
03fc00
000c00
000c00
000c00
000c00
000f00
000f00
000000
000000
000000
000000
ENDCHAR
STARTCHAR r
ENCODING 145
SWIDTH 563 0
DWIDTH 18 0
BBX 18 32 0 -8
BITMAP
000000
000000
000000
000000
000000
000000
000000
000000
000000
000000
38fc00
39fe00
1f8700
0f0300
0e0000
0c0000
0c0000
0c0000
0c0000
0c0000
0c0000
0c0000
0c0000
0c0000
000000
000000
000000
000000
000000
000000
000000
000000
ENDCHAR
STARTCHAR s
ENCODING 146
SWIDTH 563 0
DWIDTH 18 0
BBX 18 32 0 -8
BITMAP
000000
000000
000000
000000
000000
000000
000000
000000
000000
000000
0ff000
1ff800
381c00
380c00
1c0000
0e0000
07c000
03e000
007000
003800
301c00
381c00
1ff800
0ff000
000000
000000
000000
000000
000000
000000
000000
000000
ENDCHAR
STARTCHAR t
ENCODING 147
SWIDTH 563 0
DWIDTH 18 0
BBX 18 32 0 -8
BITMAP
000000
000000
000000
000000
00c000
00c000
00c000
00c000
00c000
00c000
0ffc00
0ffc00
00c000
00c000
00c000
00c000
00c000
00c000
00c000
00c000
00c000
00c000
00c000
00c000
000000
000000
000000
000000
000000
000000
000000
000000
ENDCHAR
STARTCHAR u
ENCODING 148
SWIDTH 563 0
DWIDTH 18 0
BBX 18 32 0 -8
BITMAP
000000
000000
000000
000000
000000
000000
000000
000000
000000
000000
300c00
300c00
300c00
300c00
300c00
300c00
300c00
300c00
300c00
300c00
300c00
381e00
1fff00
0ff300
000000
000000
000000
000000
000000
000000
000000
000000
ENDCHAR
STARTCHAR v
ENCODING 149
SWIDTH 563 0
DWIDTH 18 0
BBX 18 32 0 -8
BITMAP
000000
000000
000000
000000
000000
000000
000000
000000
000000
000000
300300
300300
300300
380700
1c0e00
0c0c00
0c0c00
0e1c00
073800
033000
033000
03f000
01e000
00c000
000000
000000
000000
000000
000000
000000
000000
000000
ENDCHAR
STARTCHAR w
ENCODING 150
SWIDTH 563 0
DWIDTH 18 0
BBX 18 32 0 -8
BITMAP
000000
000000
000000
000000
000000
000000
000000
000000
000000
000000
300300
300300
300300
300300
300300
300300
30c300
30c300
30c300
31e300
33f300
3f3f00
1e1e00
0c0c00
000000
000000
000000
000000
000000
000000
000000
000000
ENDCHAR
STARTCHAR x
ENCODING 151
SWIDTH 563 0
DWIDTH 18 0
BBX 18 32 0 -8
BITMAP
000000
000000
000000
000000
000000
000000
000000
000000
000000
000000
300300
380700
1c0e00
0e1c00
073800
03f000
01e000
01e000
03f000
073800
0e1c00
1c0e00
380700
300300
000000
000000
000000
000000
000000
000000
000000
000000
ENDCHAR
STARTCHAR y
ENCODING 152
SWIDTH 563 0
DWIDTH 18 0
BBX 18 32 0 -8
BITMAP
000000
000000
000000
000000
000000
000000
000000
000000
000000
000000
300c00
300c00
300c00
300c00
300c00
300c00
300c00
380c00
1c0c00
0e1c00
073800
03f000
01e000
01c000
038000
070000
0e0000
1c0000
380000
300000
000000
000000
ENDCHAR
STARTCHAR z
ENCODING 153
SWIDTH 563 0
DWIDTH 18 0
BBX 18 32 0 -8
BITMAP
000000
000000
000000
000000
000000
000000
000000
000000
000000
000000
3fff00
3fff00
000e00
001c00
003800
007000
00e000
01c000
038000
070000
0e0000
1c0000
3fff00
3fff00
000000
000000
000000
000000
000000
000000
000000
000000
ENDCHAR
STARTCHAR ae
ENCODING 154
SWIDTH 563 0
DWIDTH 18 0
BBX 18 32 0 -8
BITMAP
000000
000000
000000
000000
000000
000000
000000
000000
000000
000000
3f3c00
3ffe00
01e700
00c300
03c300
07c300
0eff00
1cff00
38c000
30c000
30c000
39e000
1fff00
0f3f00
000000
000000
000000
000000
000000
000000
000000
000000
ENDCHAR
STARTCHAR oslash
ENCODING 155
SWIDTH 563 0
DWIDTH 18 0
BBX 18 32 0 -8
BITMAP
000000
000000
000000
000000
000000
000000
000000
000000
000000
000000
03f300
07ff00
0e1e00
0c1c00
0c3c00
0c7c00
0cec00
0dcc00
0f8c00
0f0c00
0e0c00
1e1c00
3ff800
33f000
000000
000000
000000
000000
000000
000000
000000
000000
ENDCHAR
STARTCHAR aring
ENCODING 156
SWIDTH 563 0
DWIDTH 18 0
BBX 18 32 0 -8
BITMAP
000000
000000
000000
000000
03f000
03f000
03f000
03f000
000000
000000
0ff000
0ff800
001c00
000c00
000c00
000c00
0ffc00
1ffc00
380c00
300c00
300c00
380c00
1fff00
0fff00
000000
000000
000000
000000
000000
000000
000000
000000
ENDCHAR
STARTCHAR division
ENCODING 157
SWIDTH 563 0
DWIDTH 18 0
BBX 18 32 0 -8
BITMAP
000000
000000
000000
000000
000000
000000
000000
01e000
01e000
01e000
01e000
000000
000000
000000
3fff00
3fff00
000000
000000
000000
01e000
01e000
01e000
01e000
000000
000000
000000
000000
000000
000000
000000
000000
000000
ENDCHAR
STARTCHAR fm
ENCODING 158
SWIDTH 563 0
DWIDTH 18 0
BBX 18 32 0 -8
BITMAP
000000
000000
000000
000000
3fff00
3fff00
3fff00
3fff00
000000
000000
00f000
00f000
00f000
00f000
000000
000000
000000
000000
00f000
00f000
00f000
01f000
03e000
07c000
0f8000
0f0000
000000
000000
000000
000000
000000
000000
ENDCHAR
STARTCHAR dup
ENCODING 159
SWIDTH 563 0
DWIDTH 18 0
BBX 18 32 0 -8
BITMAP
000000
000000
000000
000000
3fff00
3fff00
3fff00
3fff00
000000
000000
00c000
00c000
30c300
38c700
1cce00
0edc00
073800
073800
0edc00
1cce00
38c700
30c300
00c000
00c000
000000
000000
000000
000000
000000
000000
000000
000000
ENDCHAR
STARTCHAR A
ENCODING 160
SWIDTH 563 0
DWIDTH 18 0
BBX 18 32 0 -8
BITMAP
000000
000000
000000
000000
000000
000000
00c000
01e000
03f000
073800
0e1c00
1c0e00
380700
300300
300300
300300
3fff00
3fff00
300300
300300
300300
300300
300300
300300
000000
000000
000000
000000
000000
000000
000000
000000
ENDCHAR
STARTCHAR B
ENCODING 161
SWIDTH 563 0
DWIDTH 18 0
BBX 18 32 0 -8
BITMAP
000000
000000
000000
000000
000000
000000
3ff000
3ff800
0c1c00
0c0e00
0c0700
0c0700
0c0e00
0c1c00
0ff800
0ff800
0c1c00
0c0e00
0c0700
0c0700
0c0e00
0c1c00
3ff800
3ff000
000000
000000
000000
000000
000000
000000
000000
000000
ENDCHAR
STARTCHAR C
ENCODING 162
SWIDTH 563 0
DWIDTH 18 0
BBX 18 32 0 -8
BITMAP
000000
000000
000000
000000
000000
000000
00fc00
01fe00
038700
070300
0e0000
1c0000
380000
300000
300000
300000
300000
380000
1c0000
0e0000
070300
038700
01fe00
00fc00
000000
000000
000000
000000
000000
000000
000000
000000
ENDCHAR
STARTCHAR D
ENCODING 163
SWIDTH 563 0
DWIDTH 18 0
BBX 18 32 0 -8
BITMAP
000000
000000
000000
000000
000000
000000
3ff000
3ff800
0c1c00
0c0e00
0c0700
0c0300
0c0300
0c0300
0c0300
0c0300
0c0300
0c0300
0c0300
0c0700
0c0e00
0c1c00
3ff800
3ff000
000000
000000
000000
000000
000000
000000
000000
000000
ENDCHAR
STARTCHAR E
ENCODING 164
SWIDTH 563 0
DWIDTH 18 0
BBX 18 32 0 -8
BITMAP
000000
000000
000000
000000
000000
000000
3fff00
3fff00
300000
300000
300000
300000
300000
300000
3ff000
3ff000
300000
300000
300000
300000
300000
300000
3fff00
3fff00
000000
000000
000000
000000
000000
000000
000000
000000
ENDCHAR
STARTCHAR F
ENCODING 165
SWIDTH 563 0
DWIDTH 18 0
BBX 18 32 0 -8
BITMAP
000000
000000
000000
000000
000000
000000
3fff00
3fff00
300000
300000
300000
300000
300000
300000
3ffc00
3ffc00
300000
300000
300000
300000
300000
300000
300000
300000
000000
000000
000000
000000
000000
000000
000000
000000
ENDCHAR
STARTCHAR G
ENCODING 166
SWIDTH 563 0
DWIDTH 18 0
BBX 18 32 0 -8
BITMAP
000000
000000
000000
000000
000000
000000
03f000
07f800
0e1c00
1c0c00
380000
300000
300000
300000
300000
300000
30ff00
30ff00
300c00
380c00
1c0c00
0e0c00
07fc00
03fc00
000000
000000
000000
000000
000000
000000
000000
000000
ENDCHAR
STARTCHAR H
ENCODING 167
SWIDTH 563 0
DWIDTH 18 0
BBX 18 32 0 -8
BITMAP
000000
000000
000000
000000
000000
000000
300300
300300
300300
300300
300300
300300
300300
300300
3fff00
3fff00
300300
300300
300300
300300
300300
300300
300300
300300
000000
000000
000000
000000
000000
000000
000000
000000
ENDCHAR
STARTCHAR I
ENCODING 168
SWIDTH 563 0
DWIDTH 18 0
BBX 18 32 0 -8
BITMAP
000000
000000
000000
000000
000000
000000
03f000
03f000
00c000
00c000
00c000
00c000
00c000
00c000
00c000
00c000
00c000
00c000
00c000
00c000
00c000
00c000
03f000
03f000
000000
000000
000000
000000
000000
000000
000000
000000
ENDCHAR
STARTCHAR J
ENCODING 169
SWIDTH 563 0
DWIDTH 18 0
BBX 18 32 0 -8
BITMAP
000000
000000
000000
000000
000000
000000
00fc00
00fc00
003000
003000
003000
003000
003000
003000
003000
003000
003000
003000
303000
303000
303000
387000
1fe000
0fc000
000000
000000
000000
000000
000000
000000
000000
000000
ENDCHAR
STARTCHAR K
ENCODING 170
SWIDTH 563 0
DWIDTH 18 0
BBX 18 32 0 -8
BITMAP
000000
000000
000000
000000
000000
000000
300300
300700
300e00
301c00
303800
307000
30e000
31c000
338000
378000
3fc000
3ce000
387000
303800
301c00
300e00
300700
300300
000000
000000
000000
000000
000000
000000
000000
000000
ENDCHAR
STARTCHAR L
ENCODING 171
SWIDTH 563 0
DWIDTH 18 0
BBX 18 32 0 -8
BITMAP
000000
000000
000000
000000
000000
000000
300000
300000
300000
300000
300000
300000
300000
300000
300000
300000
300000
300000
300000
300000
300000
300000
3fff00
3fff00
000000
000000
000000
000000
000000
000000
000000
000000
ENDCHAR
STARTCHAR M
ENCODING 172
SWIDTH 563 0
DWIDTH 18 0
BBX 18 32 0 -8
BITMAP
000000
000000
000000
000000
000000
000000
300300
380700
3c0f00
3e1f00
373b00
33f300
31e300
30c300
30c300
30c300
300300
300300
300300
300300
300300
300300
300300
300300
000000
000000
000000
000000
000000
000000
000000
000000
ENDCHAR
STARTCHAR N
ENCODING 173
SWIDTH 563 0
DWIDTH 18 0
BBX 18 32 0 -8
BITMAP
000000
000000
000000
000000
000000
000000
300300
380300
3c0300
3e0300
370300
338300
31c300
30e300
307300
303b00
301f00
300f00
300700
300300
300300
300300
300300
300300
000000
000000
000000
000000
000000
000000
000000
000000
ENDCHAR
STARTCHAR O
ENCODING 174
SWIDTH 563 0
DWIDTH 18 0
BBX 18 32 0 -8
BITMAP
000000
000000
000000
000000
000000
000000
0ffc00
1ffe00
380700
300300
300300
300300
300300
300300
300300
300300
300300
300300
300300
300300
300300
380700
1ffe00
0ffc00
000000
000000
000000
000000
000000
000000
000000
000000
ENDCHAR
STARTCHAR P
ENCODING 175
SWIDTH 563 0
DWIDTH 18 0
BBX 18 32 0 -8
BITMAP
000000
000000
000000
000000
000000
000000
3ff000
3ff800
301c00
300e00
300700
300300
300300
300700
300e00
301c00
3ff800
3ff000
300000
300000
300000
300000
300000
300000
000000
000000
000000
000000
000000
000000
000000
000000
ENDCHAR
STARTCHAR Q
ENCODING 176
SWIDTH 563 0
DWIDTH 18 0
BBX 18 32 0 -8
BITMAP
000000
000000
000000
000000
000000
000000
03f000
07f800
0e1c00
1c0e00
380700
300300
300300
300300
300300
300300
300300
300300
30c300
38c700
1cce00
0e7c00
07f800
03f800
001c00
000e00
000700
000300
000000
000000
000000
000000
ENDCHAR
STARTCHAR R
ENCODING 177
SWIDTH 563 0
DWIDTH 18 0
BBX 18 32 0 -8
BITMAP
000000
000000
000000
000000
000000
000000
3ffc00
3ffe00
300700
300300
300300
300300
300300
300700
3ffe00
3ffc00
31c000
30e000
307000
303800
301c00
300e00
300700
300300
000000
000000
000000
000000
000000
000000
000000
000000
ENDCHAR
STARTCHAR S
ENCODING 178
SWIDTH 563 0
DWIDTH 18 0
BBX 18 32 0 -8
BITMAP
000000
000000
000000
000000
000000
000000
0ffc00
1ffe00
380700
300300
300000
380000
1f0000
0f8000
01c000
00e000
007c00
003e00
000700
000300
300300
380700
1ffe00
0ffc00
000000
000000
000000
000000
000000
000000
000000
000000
ENDCHAR
STARTCHAR T
ENCODING 179
SWIDTH 563 0
DWIDTH 18 0
BBX 18 32 0 -8
BITMAP
000000
000000
000000
000000
000000
000000
3fff00
3fff00
00c000
00c000
00c000
00c000
00c000
00c000
00c000
00c000
00c000
00c000
00c000
00c000
00c000
00c000
00c000
00c000
000000
000000
000000
000000
000000
000000
000000
000000
ENDCHAR
STARTCHAR U
ENCODING 180
SWIDTH 563 0
DWIDTH 18 0
BBX 18 32 0 -8
BITMAP
000000
000000
000000
000000
000000
000000
300300
300300
300300
300300
300300
300300
300300
300300
300300
300300
300300
300300
300300
300300
300300
380700
1ffe00
0ffc00
000000
000000
000000
000000
000000
000000
000000
000000
ENDCHAR
STARTCHAR V
ENCODING 181
SWIDTH 563 0
DWIDTH 18 0
BBX 18 32 0 -8
BITMAP
000000
000000
000000
000000
000000
000000
300300
300300
300300
380700
1c0e00
0c0c00
0c0c00
0c0c00
0c0c00
0e1c00
073800
033000
033000
03f000
01e000
00c000
00c000
00c000
000000
000000
000000
000000
000000
000000
000000
000000
ENDCHAR
STARTCHAR W
ENCODING 182
SWIDTH 563 0
DWIDTH 18 0
BBX 18 32 0 -8
BITMAP
000000
000000
000000
000000
000000
000000
300300
300300
300300
300300
300300
300300
300300
300300
30c300
30c300
30c300
30c300
30c300
31e300
33f300
3f3f00
1e1e00
0c0c00
000000
000000
000000
000000
000000
000000
000000
000000
ENDCHAR
STARTCHAR X
ENCODING 183
SWIDTH 563 0
DWIDTH 18 0
BBX 18 32 0 -8
BITMAP
000000
000000
000000
000000
000000
000000
300300
300300
300300
380700
1c0e00
0e1c00
073800
03f000
01e000
01e000
03f000
073800
0e1c00
1c0e00
380700
300300
300300
300300
000000
000000
000000
000000
000000
000000
000000
000000
ENDCHAR
STARTCHAR Y
ENCODING 184
SWIDTH 563 0
DWIDTH 18 0
BBX 18 32 0 -8
BITMAP
000000
000000
000000
000000
000000
000000
300300
380700
1c0e00
0e1c00
073800
03f000
01e000
00c000
00c000
00c000
00c000
00c000
00c000
00c000
00c000
00c000
00c000
00c000
000000
000000
000000
000000
000000
000000
000000
000000
ENDCHAR
STARTCHAR Z
ENCODING 185
SWIDTH 563 0
DWIDTH 18 0
BBX 18 32 0 -8
BITMAP
000000
000000
000000
000000
000000
000000
3fff00
3fff00
000300
000700
000e00
001c00
003800
007000
00e000
01c000
038000
070000
0e0000
1c0000
380000
300000
3fff00
3fff00
000000
000000
000000
000000
000000
000000
000000
000000
ENDCHAR
STARTCHAR AE
ENCODING 186
SWIDTH 563 0
DWIDTH 18 0
BBX 18 32 0 -8
BITMAP
000000
000000
000000
000000
000000
000000
00ff00
01ff00
03b000
073000
0e3000
1c3000
383000
303000
303f00
303f00
3ff000
3ff000
303000
303000
303000
303000
303f00
303f00
000000
000000
000000
000000
000000
000000
000000
000000
ENDCHAR
STARTCHAR Ooblique
ENCODING 187
SWIDTH 563 0
DWIDTH 18 0
BBX 18 32 0 -8
BITMAP
000000
000000
000000
000000
000000
000000
0ffc00
1ffe00
380700
300700
300f00
301f00
303b00
307300
30e300
31c300
338300
370300
3e0300
3c0300
380300
380700
1ffe00
0ffc00
000000
000000
000000
000000
000000
000000
000000
000000
ENDCHAR
STARTCHAR Aring
ENCODING 188
SWIDTH 563 0
DWIDTH 18 0
BBX 18 32 0 -8
BITMAP
000000
000000
03f000
03f000
03f000
03f000
00c000
01e000
03f000
073800
0e1c00
1c0e00
380700
300300
300300
300300
3fff00
3fff00
300300
300300
300300
300300
300300
300300
000000
000000
000000
000000
000000
000000
000000
000000
ENDCHAR
STARTCHAR Ccedilla
ENCODING 189
SWIDTH 563 0
DWIDTH 18 0
BBX 18 32 0 -8
BITMAP
000000
000000
000000
000000
000000
000000
00fc00
01fe00
038700
070300
0e0000
1c0000
380000
300000
300000
300000
300000
380000
1c0000
0e0000
070300
038700
01fe00
00fc00
003800
003000
0ff000
0fe000
000000
000000
000000
000000
ENDCHAR
STARTCHAR semicolon
ENCODING 190
SWIDTH 563 0
DWIDTH 18 0
BBX 18 32 0 -8
BITMAP
000000
000000
000000
000000
000000
000000
000000
000000
000000
000000
000000
000000
00f000
00f000
00f000
00f000
000000
000000
000000
000000
00f000
00f000
00f000
01f000
03e000
07c000
0f8000
0f0000
000000
000000
000000
000000
ENDCHAR
STARTCHAR asterisk
ENCODING 191
SWIDTH 563 0
DWIDTH 18 0
BBX 18 32 0 -8
BITMAP
000000
000000
000000
000000
000000
000000
00c000
00c000
30c300
38c700
1cce00
0edc00
073800
073800
0edc00
1cce00
38c700
30c300
00c000
00c000
000000
000000
000000
000000
000000
000000
000000
000000
000000
000000
000000
000000
ENDCHAR
STARTCHAR c0
ENCODING 192
SWIDTH 563 0
DWIDTH 18 0
BBX 18 32 0 -8
BITMAP
000000
000000
000000
000000
000000
000000
000000
000000
000000
000000
000000
000000
000000
000000
000000
000000
000000
000000
000000
000000
000000
000000
000000
000000
000000
000000
000000
000000
000000
000000
000000
000000
ENDCHAR
STARTCHAR c1
ENCODING 193
SWIDTH 563 0
DWIDTH 18 0
BBX 18 32 0 -8
BITMAP
000000
000000
000000
000000
000000
000000
000000
000000
000000
000000
000000
000000
000000
000000
000000
000000
000000
000000
000000
000000
000000
000000
000000
000000
000000
000000
000000
000000
000000
000000
000000
000000
ENDCHAR
STARTCHAR c2
ENCODING 194
SWIDTH 563 0
DWIDTH 18 0
BBX 18 32 0 -8
BITMAP
000000
000000
000000
000000
000000
000000
000000
000000
000000
000000
000000
000000
000000
000000
000000
000000
000000
000000
000000
000000
000000
000000
000000
000000
000000
000000
000000
000000
000000
000000
000000
000000
ENDCHAR
STARTCHAR c3
ENCODING 195
SWIDTH 563 0
DWIDTH 18 0
BBX 18 32 0 -8
BITMAP
000000
000000
000000
000000
000000
000000
000000
000000
000000
000000
000000
000000
000000
000000
000000
000000
000000
000000
000000
000000
000000
000000
000000
000000
000000
000000
000000
000000
000000
000000
000000
000000
ENDCHAR
STARTCHAR c4
ENCODING 196
SWIDTH 563 0
DWIDTH 18 0
BBX 18 32 0 -8
BITMAP
000000
000000
000000
000000
000000
000000
000000
000000
000000
000000
000000
000000
000000
000000
000000
000000
000000
000000
000000
000000
000000
000000
000000
000000
000000
000000
000000
000000
000000
000000
000000
000000
ENDCHAR
STARTCHAR c5
ENCODING 197
SWIDTH 563 0
DWIDTH 18 0
BBX 18 32 0 -8
BITMAP
000000
000000
000000
000000
000000
000000
000000
000000
000000
000000
000000
000000
000000
000000
000000
000000
000000
000000
000000
000000
000000
000000
000000
000000
000000
000000
000000
000000
000000
000000
000000
000000
ENDCHAR
STARTCHAR c6
ENCODING 198
SWIDTH 563 0
DWIDTH 18 0
BBX 18 32 0 -8
BITMAP
000000
000000
000000
000000
000000
000000
000000
000000
000000
000000
000000
000000
000000
000000
000000
000000
000000
000000
000000
000000
000000
000000
000000
000000
000000
000000
000000
000000
000000
000000
000000
000000
ENDCHAR
STARTCHAR c7
ENCODING 199
SWIDTH 563 0
DWIDTH 18 0
BBX 18 32 0 -8
BITMAP
000000
000000
000000
000000
000000
000000
000000
000000
000000
000000
000000
000000
000000
000000
000000
000000
000000
000000
000000
000000
000000
000000
000000
000000
000000
000000
000000
000000
000000
000000
000000
000000
ENDCHAR
STARTCHAR c8
ENCODING 200
SWIDTH 563 0
DWIDTH 18 0
BBX 18 32 0 -8
BITMAP
000000
000000
000000
000000
000000
000000
000000
000000
000000
000000
000000
000000
000000
000000
000000
000000
000000
000000
000000
000000
000000
000000
000000
000000
000000
000000
000000
000000
000000
000000
000000
000000
ENDCHAR
STARTCHAR c9
ENCODING 201
SWIDTH 563 0
DWIDTH 18 0
BBX 18 32 0 -8
BITMAP
000000
000000
000000
000000
000000
000000
000000
000000
000000
000000
000000
000000
000000
000000
000000
000000
000000
000000
000000
000000
000000
000000
000000
000000
000000
000000
000000
000000
000000
000000
000000
000000
ENDCHAR
STARTCHAR ca
ENCODING 202
SWIDTH 563 0
DWIDTH 18 0
BBX 18 32 0 -8
BITMAP
000000
000000
000000
000000
000000
000000
000000
000000
000000
000000
000000
000000
000000
000000
000000
000000
000000
000000
000000
000000
000000
000000
000000
000000
000000
000000
000000
000000
000000
000000
000000
000000
ENDCHAR
STARTCHAR cb
ENCODING 203
SWIDTH 563 0
DWIDTH 18 0
BBX 18 32 0 -8
BITMAP
000000
000000
000000
000000
000000
000000
000000
000000
000000
000000
000000
000000
000000
000000
000000
000000
000000
000000
000000
000000
000000
000000
000000
000000
000000
000000
000000
000000
000000
000000
000000
000000
ENDCHAR
STARTCHAR cc
ENCODING 204
SWIDTH 563 0
DWIDTH 18 0
BBX 18 32 0 -8
BITMAP
000000
000000
000000
000000
000000
000000
000000
000000
000000
000000
000000
000000
000000
000000
000000
000000
000000
000000
000000
000000
000000
000000
000000
000000
000000
000000
000000
000000
000000
000000
000000
000000
ENDCHAR
STARTCHAR cd
ENCODING 205
SWIDTH 563 0
DWIDTH 18 0
BBX 18 32 0 -8
BITMAP
000000
000000
000000
000000
000000
000000
000000
000000
000000
000000
000000
000000
000000
000000
000000
000000
000000
000000
000000
000000
000000
000000
000000
000000
000000
000000
000000
000000
000000
000000
000000
000000
ENDCHAR
STARTCHAR ce
ENCODING 206
SWIDTH 563 0
DWIDTH 18 0
BBX 18 32 0 -8
BITMAP
000000
000000
000000
000000
000000
000000
000000
000000
000000
000000
000000
000000
000000
000000
000000
000000
000000
000000
000000
000000
000000
000000
000000
000000
000000
000000
000000
000000
000000
000000
000000
000000
ENDCHAR
STARTCHAR cf
ENCODING 207
SWIDTH 563 0
DWIDTH 18 0
BBX 18 32 0 -8
BITMAP
000000
000000
000000
000000
000000
000000
000000
000000
000000
000000
000000
000000
000000
000000
000000
000000
000000
000000
000000
000000
000000
000000
000000
000000
000000
000000
000000
000000
000000
000000
000000
000000
ENDCHAR
STARTCHAR copyright
ENCODING 208
SWIDTH 563 0
DWIDTH 18 0
BBX 18 32 0 -8
BITMAP
000000
000000
000000
000000
000000
000000
07f800
0ffc00
1c0e00
380700
30f300
31f300
338300
330300
330300
330300
330300
338300
31f300
30f300
380700
1c0e00
0ffc00
07f800
000000
000000
000000
000000
000000
000000
000000
000000
ENDCHAR
STARTCHAR registered
ENCODING 209
SWIDTH 563 0
DWIDTH 18 0
BBX 18 32 0 -8
BITMAP
000000
000000
000000
000000
000000
000000
07f800
0ffc00
1c0e00
380700
33e300
33f300
333300
333300
33f300
33e300
336300
337300
333300
333300
380700
1c0e00
0ffc00
07f800
000000
000000
000000
000000
000000
000000
000000
000000
ENDCHAR
STARTCHAR boxA
ENCODING 210
SWIDTH 563 0
DWIDTH 18 0
BBX 18 32 0 -8
BITMAP
000000
000000
0c0000
1e0000
3f0000
738000
e1c000
c0c000
c0c000
c0c000
ffc000
ffc000
c0c000
c0c000
c0c000
c0c000
000000
000000
ffffc0
ffffc0
c000c0
c000c0
c000c0
c000c0
ffffc0
ffffc0
000000
000000
000000
000000
000000
000000
ENDCHAR
STARTCHAR insert
ENCODING 211
SWIDTH 563 0
DWIDTH 18 0
BBX 18 32 0 -8
BITMAP
000000
000000
000000
000000
000000
000000
000000
000000
000000
000000
00c000
01e000
03f000
07f800
0ffc00
1ffe00
3fff00
7f3f80
fe1fc0
fc0fc0
f807c0
f003c0
e001c0
c000c0
800040
000000
000000
000000
000000
000000
000000
000000
ENDCHAR
STARTCHAR boxB
ENCODING 212
SWIDTH 563 0
DWIDTH 18 0
BBX 18 32 0 -8
BITMAP
000000
000000
00ff00
00ff80
0031c0
0030c0
0030c0
0031c0
003f80
003f80
0031c0
0030c0
0030c0
0031c0
00ff80
00ff00
000000
000000
ffffc0
ffffc0
c000c0
c000c0
c000c0
c000c0
ffffc0
ffffc0
000000
000000
000000
000000
000000
000000
ENDCHAR
STARTCHAR box6
ENCODING 213
SWIDTH 563 0
DWIDTH 18 0
BBX 18 32 0 -8
BITMAP
000000
000000
000000
000000
000000
000000
ffffc0
ffffc0
c000c0
c000c0
c300c0
c700c0
ce00c0
cc00c0
cc00c0
cc00c0
ccf0c0
cdf8c0
cf9cc0
cf0cc0
cc0cc0
ce1cc0
c7f8c0
c3f0c0
c000c0
c000c0
ffffc0
ffffc0
000000
000000
000000
000000
ENDCHAR
STARTCHAR plusminus
ENCODING 214
SWIDTH 563 0
DWIDTH 18 0
BBX 18 32 0 -8
BITMAP
000000
000000
000000
000000
00c000
00c000
00c000
00c000
00c000
00c000
3fff00
3fff00
00c000
00c000
00c000
00c000
00c000
00c000
000000
000000
3fff00
3fff00
000000
000000
000000
000000
000000
000000
000000
000000
000000
000000
ENDCHAR
STARTCHAR ETH
ENCODING 215
SWIDTH 563 0
DWIDTH 18 0
BBX 18 32 0 -8
BITMAP
000000
000000
000000
000000
000000
000000
3ff000
3ff800
0c1c00
0c0e00
0c0700
0c0300
0c0300
0c0300
3fc300
3fc300
0c0300
0c0300
0c0300
0c0700
0c0e00
0c1c00
3ff800
3ff000
000000
000000
000000
000000
000000
000000
000000
000000
ENDCHAR
STARTCHAR rightarrow
ENCODING 216
SWIDTH 563 0
DWIDTH 18 0
BBX 18 32 0 -8
BITMAP
000000
000000
000000
000000
000000
000000
000000
000000
000000
000000
003000
003800
003c00
003e00
ffff00
ffff00
003e00
003c00
003800
003000
000000
000000
000000
000000
000000
000000
000000
000000
000000
000000
000000
000000
ENDCHAR
STARTCHAR THORN
ENCODING 217
SWIDTH 563 0
DWIDTH 18 0
BBX 18 32 0 -8
BITMAP
000000
000000
000000
000000
000000
000000
300000
300000
300000
3ff000
3ff800
301c00
300e00
300700
300300
300300
300700
300e00
301c00
3ff800
3ff000
300000
300000
300000
000000
000000
000000
000000
000000
000000
000000
000000
ENDCHAR
STARTCHAR upshift
ENCODING 218
SWIDTH 563 0
DWIDTH 18 0
BBX 18 32 0 -8
BITMAP
000000
000000
000000
000000
00c000
01e000
03f000
073800
0e1c00
1c0e00
380700
300300
3f3f00
3f3f00
033000
033000
033000
033000
033000
033000
033000
033000
033000
033000
03f000
03f000
000000
000000
000000
000000
000000
000000
ENDCHAR
STARTCHAR human
ENCODING 219
SWIDTH 563 0
DWIDTH 18 0
BBX 18 32 0 -8
BITMAP
000000
000000
000000
000000
03f000
03f000
033000
033000
03f000
03f000
00c000
00c000
3fff00
3fff00
00c000
00c000
00c000
01e000
03f000
073800
0e1c00
1c0e00
380700
300300
000000
000000
000000
000000
000000
000000
000000
000000
ENDCHAR
STARTCHAR underB
ENCODING 220
SWIDTH 563 0
DWIDTH 18 0
BBX 18 32 0 -8
BITMAP
000000
000000
0ff000
0ff800
031c00
030c00
030c00
031c00
03f800
03f800
031c00
030c00
030c00
031c00
0ff800
0ff000
000000
000000
ffffc0
ffffc0
000000
000000
000000
000000
000000
000000
000000
000000
000000
000000
000000
000000
ENDCHAR
STARTCHAR downshift
ENCODING 221
SWIDTH 563 0
DWIDTH 18 0
BBX 18 32 0 -8
BITMAP
000000
000000
000000
000000
03f000
03f000
033000
033000
033000
033000
033000
033000
033000
033000
033000
033000
3f3f00
3f3f00
300300
380700
1c0e00
0e1c00
073800
03f000
01e000
00c000
000000
000000
000000
000000
000000
000000
ENDCHAR
STARTCHAR boxquestion
ENCODING 222
SWIDTH 563 0
DWIDTH 18 0
BBX 18 32 0 -8
BITMAP
000000
000000
ffffc0
ffffc0
c000c0
c000c0
c3f0c0
c7f8c0
ce1cc0
cc0cc0
cc0cc0
cc0cc0
c00cc0
c01cc0
c038c0
c070c0
c0e0c0
c0c0c0
c0c0c0
c0c0c0
c000c0
c000c0
c0c0c0
c0c0c0
c000c0
c000c0
ffffc0
ffffc0
000000
000000
000000
000000
ENDCHAR
STARTCHAR boxsolid
ENCODING 223
SWIDTH 563 0
DWIDTH 18 0
BBX 18 32 0 -8
BITMAP
000000
000000
ffffc0
ffffc0
ffffc0
ffffc0
ffffc0
ffffc0
ffffc0
ffffc0
ffffc0
ffffc0
ffffc0
ffffc0
ffffc0
ffffc0
ffffc0
ffffc0
ffffc0
ffffc0
ffffc0
ffffc0
ffffc0
ffffc0
ffffc0
ffffc0
ffffc0
ffffc0
000000
000000
000000
000000
ENDCHAR
STARTCHAR e0
ENCODING 224
SWIDTH 563 0
DWIDTH 18 0
BBX 18 32 0 -8
BITMAP
000000
000000
000000
000000
000000
000000
000000
000000
000000
000000
000000
000000
000000
000000
000000
000000
000000
000000
000000
000000
000000
000000
000000
000000
000000
000000
000000
000000
000000
000000
000000
000000
ENDCHAR
STARTCHAR e1
ENCODING 225
SWIDTH 563 0
DWIDTH 18 0
BBX 18 32 0 -8
BITMAP
000000
000000
000000
000000
000000
000000
000000
000000
000000
000000
000000
000000
000000
000000
000000
000000
000000
000000
000000
000000
000000
000000
000000
000000
000000
000000
000000
000000
000000
000000
000000
000000
ENDCHAR
STARTCHAR e2
ENCODING 226
SWIDTH 563 0
DWIDTH 18 0
BBX 18 32 0 -8
BITMAP
000000
000000
000000
000000
000000
000000
000000
000000
000000
000000
000000
000000
000000
000000
000000
000000
000000
000000
000000
000000
000000
000000
000000
000000
000000
000000
000000
000000
000000
000000
000000
000000
ENDCHAR
STARTCHAR e3
ENCODING 227
SWIDTH 563 0
DWIDTH 18 0
BBX 18 32 0 -8
BITMAP
000000
000000
000000
000000
000000
000000
000000
000000
000000
000000
000000
000000
000000
000000
000000
000000
000000
000000
000000
000000
000000
000000
000000
000000
000000
000000
000000
000000
000000
000000
000000
000000
ENDCHAR
STARTCHAR e4
ENCODING 228
SWIDTH 563 0
DWIDTH 18 0
BBX 18 32 0 -8
BITMAP
000000
000000
000000
000000
000000
000000
000000
000000
000000
000000
000000
000000
000000
000000
000000
000000
000000
000000
000000
000000
000000
000000
000000
000000
000000
000000
000000
000000
000000
000000
000000
000000
ENDCHAR
STARTCHAR e5
ENCODING 229
SWIDTH 563 0
DWIDTH 18 0
BBX 18 32 0 -8
BITMAP
000000
000000
000000
000000
000000
000000
000000
000000
000000
000000
000000
000000
000000
000000
000000
000000
000000
000000
000000
000000
000000
000000
000000
000000
000000
000000
000000
000000
000000
000000
000000
000000
ENDCHAR
STARTCHAR e6
ENCODING 230
SWIDTH 563 0
DWIDTH 18 0
BBX 18 32 0 -8
BITMAP
000000
000000
000000
000000
000000
000000
000000
000000
000000
000000
000000
000000
000000
000000
000000
000000
000000
000000
000000
000000
000000
000000
000000
000000
000000
000000
000000
000000
000000
000000
000000
000000
ENDCHAR
STARTCHAR e7
ENCODING 231
SWIDTH 563 0
DWIDTH 18 0
BBX 18 32 0 -8
BITMAP
000000
000000
000000
000000
000000
000000
000000
000000
000000
000000
000000
000000
000000
000000
000000
000000
000000
000000
000000
000000
000000
000000
000000
000000
000000
000000
000000
000000
000000
000000
000000
000000
ENDCHAR
STARTCHAR e8
ENCODING 232
SWIDTH 563 0
DWIDTH 18 0
BBX 18 32 0 -8
BITMAP
000000
000000
000000
000000
000000
000000
000000
000000
000000
000000
000000
000000
000000
000000
000000
000000
000000
000000
000000
000000
000000
000000
000000
000000
000000
000000
000000
000000
000000
000000
000000
000000
ENDCHAR
STARTCHAR e9
ENCODING 233
SWIDTH 563 0
DWIDTH 18 0
BBX 18 32 0 -8
BITMAP
000000
000000
000000
000000
000000
000000
000000
000000
000000
000000
000000
000000
000000
000000
000000
000000
000000
000000
000000
000000
000000
000000
000000
000000
000000
000000
000000
000000
000000
000000
000000
000000
ENDCHAR
STARTCHAR ea
ENCODING 234
SWIDTH 563 0
DWIDTH 18 0
BBX 18 32 0 -8
BITMAP
000000
000000
000000
000000
000000
000000
000000
000000
000000
000000
000000
000000
000000
000000
000000
000000
000000
000000
000000
000000
000000
000000
000000
000000
000000
000000
000000
000000
000000
000000
000000
000000
ENDCHAR
STARTCHAR eb
ENCODING 235
SWIDTH 563 0
DWIDTH 18 0
BBX 18 32 0 -8
BITMAP
000000
000000
000000
000000
000000
000000
000000
000000
000000
000000
000000
000000
000000
000000
000000
000000
000000
000000
000000
000000
000000
000000
000000
000000
000000
000000
000000
000000
000000
000000
000000
000000
ENDCHAR
STARTCHAR ec
ENCODING 236
SWIDTH 563 0
DWIDTH 18 0
BBX 18 32 0 -8
BITMAP
000000
000000
000000
000000
000000
000000
000000
000000
000000
000000
000000
000000
000000
000000
000000
000000
000000
000000
000000
000000
000000
000000
000000
000000
000000
000000
000000
000000
000000
000000
000000
000000
ENDCHAR
STARTCHAR ed
ENCODING 237
SWIDTH 563 0
DWIDTH 18 0
BBX 18 32 0 -8
BITMAP
000000
000000
000000
000000
000000
000000
000000
000000
000000
000000
000000
000000
000000
000000
000000
000000
000000
000000
000000
000000
000000
000000
000000
000000
000000
000000
000000
000000
000000
000000
000000
000000
ENDCHAR
STARTCHAR ee
ENCODING 238
SWIDTH 563 0
DWIDTH 18 0
BBX 18 32 0 -8
BITMAP
000000
000000
000000
000000
000000
000000
000000
000000
000000
000000
000000
000000
000000
000000
000000
000000
000000
000000
000000
000000
000000
000000
000000
000000
000000
000000
000000
000000
000000
000000
000000
000000
ENDCHAR
STARTCHAR ef
ENCODING 239
SWIDTH 563 0
DWIDTH 18 0
BBX 18 32 0 -8
BITMAP
000000
000000
000000
000000
000000
000000
000000
000000
000000
000000
000000
000000
000000
000000
000000
000000
000000
000000
000000
000000
000000
000000
000000
000000
000000
000000
000000
000000
000000
000000
000000
000000
ENDCHAR
STARTCHAR badcommhi
ENCODING 240
SWIDTH 563 0
DWIDTH 18 0
BBX 18 32 0 -8
BITMAP
000000
000000
000000
800000
c00000
e00000
f00000
f80000
fc0000
fe0000
7f0000
3f8000
1fc000
0fe000
ffffc0
ffffc0
01fc00
00fe00
007f00
003f80
001fc0
000fc0
0007c0
0003c0
0001c0
0000c0
000040
000000
000000
000000
000000
000000
ENDCHAR
STARTCHAR commhi
ENCODING 241
SWIDTH 563 0
DWIDTH 18 0
BBX 18 32 0 -8
BITMAP
000000
000000
000000
000000
000000
000000
000000
000000
000000
000000
000000
000000
000000
000000
ffffc0
ffffc0
000000
000000
000000
000000
000000
000000
000000
000000
000000
000000
000000
000000
000000
000000
000000
000000
ENDCHAR
STARTCHAR commjag
ENCODING 242
SWIDTH 563 0
DWIDTH 18 0
BBX 18 32 0 -8
BITMAP
000000
000000
000000
000000
000000
000000
000000
000000
000000
000000
000000
000000
000000
000000
fff000
fff000
00e000
01c000
038000
070000
0e0000
1c0000
3fffc0
3fffc0
000000
000000
000000
000000
000000
000000
000000
000000
ENDCHAR
STARTCHAR commlo
ENCODING 243
SWIDTH 563 0
DWIDTH 18 0
BBX 18 32 0 -8
BITMAP
000000
000000
000000
000000
000000
000000
000000
000000
000000
000000
000000
000000
000000
000000
000000
000000
000000
000000
000000
000000
000000
000000
ffffc0
ffffc0
000000
000000
000000
000000
000000
000000
000000
000000
ENDCHAR
STARTCHAR clockleft
ENCODING 244
SWIDTH 563 0
DWIDTH 18 0
BBX 18 32 0 -8
BITMAP
000000
000000
000000
000000
000300
000300
00c000
00c000
000000
000000
0c0000
0c0000
000000
000040
0000c0
0001c0
300380
300300
000300
000300
000300
000300
0c0300
0c0300
000300
000300
00c000
00c000
000300
000300
000000
000000
ENDCHAR
STARTCHAR clockright
ENCODING 245
SWIDTH 563 0
DWIDTH 18 0
BBX 18 32 0 -8
BITMAP
000000
000000
000000
000000
0c0000
0c0000
000000
000000
0cc000
1cc000
380000
700000
e00000
c00000
803000
003000
000000
000000
000000
000000
00c000
00c000
000000
000000
0c0000
0c0000
000000
000000
000000
000000
000000
000000
ENDCHAR
STARTCHAR lock
ENCODING 246
SWIDTH 563 0
DWIDTH 18 0
BBX 18 32 0 -8
BITMAP
000000
800040
c000c0
e001c0
f003c0
f807c0
fc0fc0
fe1fc0
ff3fc0
ffffc0
7fff80
3fff00
1ffe00
0ffc00
0ffc00
1ffe00
3fff00
7fff80
ffffc0
ff3fc0
fe1fc0
fc0fc0
f807c0
f003c0
e001c0
c000c0
800040
000000
000000
000000
000000
000000
ENDCHAR
STARTCHAR eth
ENCODING 247
SWIDTH 563 0
DWIDTH 18 0
BBX 18 32 0 -8
BITMAP
000000
000000
031800
03b800
01f000
00e000
01f000
03b800
031c00
000c00
03fc00
07fc00
0e0c00
1c0c00
380c00
300c00
300c00
300c00
300c00
380c00
1c1c00
0e3800
07f000
03e000
000000
000000
000000
000000
000000
000000
000000
000000
ENDCHAR
STARTCHAR leftarrow
ENCODING 248
SWIDTH 563 0
DWIDTH 18 0
BBX 18 32 0 -8
BITMAP
000000
000000
000000
000000
000000
000000
000000
000000
000000
000000
030000
070000
0f0000
1f0000
3fffc0
3fffc0
1f0000
0f0000
070000
030000
000000
000000
000000
000000
000000
000000
000000
000000
000000
000000
000000
000000
ENDCHAR
STARTCHAR thorn
ENCODING 249
SWIDTH 563 0
DWIDTH 18 0
BBX 18 32 0 -8
BITMAP
000000
000000
000000
000000
300000
300000
300000
300000
300000
300000
3fc000
3fe000
307000
303800
301c00
300c00
300c00
300c00
300c00
301c00
303800
307000
3fe000
3fc000
300000
300000
300000
300000
300000
300000
000000
000000
ENDCHAR
STARTCHAR keyleft
ENCODING 250
SWIDTH 563 0
DWIDTH 18 0
BBX 18 32 0 -8
BITMAP
000000
000000
000000
000000
000000
000000
000000
000000
00fc00
01fe00
038700
030300
0303c0
0303c0
030300
038700
01fe00
00fc00
000000
000000
000000
000000
000000
000000
000000
000000
000000
000000
000000
000000
000000
000000
ENDCHAR
STARTCHAR keyright
ENCODING 251
SWIDTH 563 0
DWIDTH 18 0
BBX 18 32 0 -8
BITMAP
000000
000000
000000
000000
000000
000000
000000
000000
000000
000000
000000
000000
ffffc0
ffffc0
03f3c0
03f3c0
03f3c0
03f3c0
0003c0
0003c0
000000
000000
000000
000000
000000
000000
000000
000000
000000
000000
000000
000000
ENDCHAR
STARTCHAR box4
ENCODING 252
SWIDTH 563 0
DWIDTH 18 0
BBX 18 32 0 -8
BITMAP
000000
000000
000000
000000
000000
000000
ffffc0
ffffc0
c000c0
c000c0
c030c0
c070c0
c0f0c0
c1f0c0
c3b0c0
c730c0
ce30c0
cc30c0
cffcc0
cffcc0
c030c0
c030c0
c030c0
c030c0
c000c0
c000c0
ffffc0
ffffc0
000000
000000
000000
000000
ENDCHAR
STARTCHAR underA
ENCODING 253
SWIDTH 563 0
DWIDTH 18 0
BBX 18 32 0 -8
BITMAP
000000
000000
00c000
01e000
03f000
073800
0e1c00
0c0c00
0c0c00
0c0c00
0ffc00
0ffc00
0c0c00
0c0c00
0c0c00
0c0c00
000000
000000
ffffc0
ffffc0
000000
000000
000000
000000
000000
000000
000000
000000
000000
000000
000000
000000
ENDCHAR
STARTCHAR magcard
ENCODING 254
SWIDTH 563 0
DWIDTH 18 0
BBX 18 32 0 -8
BITMAP
000000
000000
000000
000000
000000
000000
000000
000000
ffffc0
ffffc0
c000c0
c000c0
c000c0
c000c0
c000c0
c000c0
ffffc0
ffffc0
c000c0
c000c0
ffffc0
ffffc0
000000
000000
000000
000000
000000
000000
000000
000000
000000
000000
ENDCHAR
STARTCHAR boxhuman
ENCODING 255
SWIDTH 563 0
DWIDTH 18 0
BBX 18 32 0 -8
BITMAP
000000
000000
ffffc0
ffffc0
c000c0
c000c0
c3f0c0
c3f0c0
c330c0
c330c0
c3f0c0
c3f0c0
c0c0c0
c0c0c0
ffffc0
ffffc0
c0c0c0
c0c0c0
c0c0c0
c1e0c0
c3f0c0
c738c0
ce1cc0
dc0ec0
f807c0
f003c0
ffffc0
ffffc0
000000
000000
000000
000000
ENDCHAR
STARTCHAR apl_space
ENCODING 272
SWIDTH 563 0
DWIDTH 18 0
BBX 18 32 0 -8
BITMAP
000000
000000
000000
000000
000000
000000
000000
000000
000000
000000
000000
000000
000000
000000
000000
000000
000000
000000
000000
000000
000000
000000
000000
000000
000000
000000
000000
000000
000000
000000
000000
000000
ENDCHAR
STARTCHAR apl_bracketright
ENCODING 316
SWIDTH 563 0
DWIDTH 18 0
BBX 18 32 0 -8
BITMAP
000000
000000
000000
000000
03f000
03f000
003000
003000
003000
003000
003000
003000
003000
003000
003000
003000
003000
003000
003000
003000
003000
003000
003000
003000
03f000
03f000
000000
000000
000000
000000
000000
000000
ENDCHAR
STARTCHAR apl_bracketleft
ENCODING 328
SWIDTH 563 0
DWIDTH 18 0
BBX 18 32 0 -8
BITMAP
000000
000000
000000
000000
03f000
03f000
030000
030000
030000
030000
030000
030000
030000
030000
030000
030000
030000
030000
030000
030000
030000
030000
030000
030000
03f000
03f000
000000
000000
000000
000000
000000
000000
ENDCHAR
STARTCHAR apl_stile
ENCODING 347
SWIDTH 563 0
DWIDTH 18 0
BBX 18 32 0 -8
BITMAP
00c000
00c000
00c000
00c000
00c000
00c000
00c000
00c000
00c000
00c000
00c000
00c000
00c000
00c000
00c000
00c000
00c000
00c000
00c000
00c000
00c000
00c000
00c000
00c000
00c000
00c000
00c000
00c000
00c000
00c000
00c000
00c000
ENDCHAR
STARTCHAR apl_2vertical
ENCODING 384
SWIDTH 563 0
DWIDTH 18 0
BBX 18 32 0 -8
BITMAP
180600
180600
180600
180600
180600
180600
180600
180600
180600
180600
180600
180600
180600
180600
180600
180600
180600
180600
180600
180600
180600
180600
180600
180600
180600
180600
180600
180600
180600
180600
180600
180600
ENDCHAR
STARTCHAR apl_2horizontal
ENCODING 385
SWIDTH 563 0
DWIDTH 18 0
BBX 18 32 0 -8
BITMAP
000000
000000
000000
ffffc0
ffffc0
000000
000000
000000
000000
000000
000000
000000
000000
000000
000000
000000
000000
000000
000000
000000
000000
000000
000000
000000
000000
000000
000000
ffffc0
ffffc0
000000
000000
000000
ENDCHAR
STARTCHAR apl_leftvbar
ENCODING 386
SWIDTH 563 0
DWIDTH 18 0
BBX 18 32 0 -8
BITMAP
180000
180000
180000
180000
180000
180000
180000
180000
180000
180000
180000
180000
180000
180000
180000
180000
180000
180000
180000
180000
180000
180000
180000
180000
180000
180000
180000
180000
180000
180000
180000
180000
ENDCHAR
STARTCHAR apl_rightvbar
ENCODING 387
SWIDTH 563 0
DWIDTH 18 0
BBX 18 32 0 -8
BITMAP
000600
000600
000600
000600
000600
000600
000600
000600
000600
000600
000600
000600
000600
000600
000600
000600
000600
000600
000600
000600
000600
000600
000600
000600
000600
000600
000600
000600
000600
000600
000600
000600
ENDCHAR
STARTCHAR apl_midvbar
ENCODING 388
SWIDTH 563 0
DWIDTH 18 0
BBX 18 32 0 -8
BITMAP
00c000
00c000
00c000
00c000
00c000
00c000
00c000
00c000
00c000
00c000
00c000
00c000
00c000
00c000
00c000
00c000
00c000
00c000
00c000
00c000
00c000
00c000
00c000
00c000
00c000
00c000
00c000
00c000
00c000
00c000
00c000
00c000
ENDCHAR
STARTCHAR apl_leftsolid
ENCODING 393
SWIDTH 563 0
DWIDTH 18 0
BBX 18 32 0 -8
BITMAP
ff8000
ff8000
ff8000
ff8000
ff8000
ff8000
ff8000
ff8000
ff8000
ff8000
ff8000
ff8000
ff8000
ff8000
ff8000
ff8000
ff8000
ff8000
ff8000
ff8000
ff8000
ff8000
ff8000
ff8000
ff8000
ff8000
ff8000
ff8000
ff8000
ff8000
ff8000
ff8000
ENDCHAR
STARTCHAR apl_rightsolid
ENCODING 394
SWIDTH 563 0
DWIDTH 18 0
BBX 18 32 0 -8
BITMAP
007fc0
007fc0
007fc0
007fc0
007fc0
007fc0
007fc0
007fc0
007fc0
007fc0
007fc0
007fc0
007fc0
007fc0
007fc0
007fc0
007fc0
007fc0
007fc0
007fc0
007fc0
007fc0
007fc0
007fc0
007fc0
007fc0
007fc0
007fc0
007fc0
007fc0
007fc0
007fc0
ENDCHAR
STARTCHAR apl_topsolid
ENCODING 395
SWIDTH 563 0
DWIDTH 18 0
BBX 18 32 0 -8
BITMAP
ffffc0
ffffc0
ffffc0
ffffc0
ffffc0
ffffc0
ffffc0
ffffc0
ffffc0
ffffc0
ffffc0
ffffc0
ffffc0
ffffc0
ffffc0
ffffc0
000000
000000
000000
000000
000000
000000
000000
000000
000000
000000
000000
000000
000000
000000
000000
000000
ENDCHAR
STARTCHAR apl_bottomsolid
ENCODING 396
SWIDTH 563 0
DWIDTH 18 0
BBX 18 32 0 -8
BITMAP
000000
000000
000000
000000
000000
000000
000000
000000
000000
000000
000000
000000
000000
000000
000000
000000
ffffc0
ffffc0
ffffc0
ffffc0
ffffc0
ffffc0
ffffc0
ffffc0
ffffc0
ffffc0
ffffc0
ffffc0
ffffc0
ffffc0
ffffc0
ffffc0
ENDCHAR
STARTCHAR apl_solid
ENCODING 397
SWIDTH 563 0
DWIDTH 18 0
BBX 18 32 0 -8
BITMAP
ffffc0
ffffc0
ffffc0
ffffc0
ffffc0
ffffc0
ffffc0
ffffc0
ffffc0
ffffc0
ffffc0
ffffc0
ffffc0
ffffc0
ffffc0
ffffc0
ffffc0
ffffc0
ffffc0
ffffc0
ffffc0
ffffc0
ffffc0
ffffc0
ffffc0
ffffc0
ffffc0
ffffc0
ffffc0
ffffc0
ffffc0
ffffc0
ENDCHAR
STARTCHAR apl_midhbar
ENCODING 402
SWIDTH 563 0
DWIDTH 18 0
BBX 18 32 0 -8
BITMAP
000000
000000
000000
000000
000000
000000
000000
000000
000000
000000
000000
000000
000000
000000
ffffc0
ffffc0
000000
000000
000000
000000
000000
000000
000000
000000
000000
000000
000000
000000
000000
000000
000000
000000
ENDCHAR
STARTCHAR apl_lowerleft
ENCODING 419
SWIDTH 563 0
DWIDTH 18 0
BBX 18 32 0 -8
BITMAP
00c000
00c000
00c000
00c000
00c000
00c000
00c000
00c000
00c000
00c000
00c000
00c000
00c000
00e000
00ffc0
007fc0
000000
000000
000000
000000
000000
000000
000000
000000
000000
000000
000000
000000
000000
000000
000000
000000
ENDCHAR
STARTCHAR apl_upperleft
ENCODING 420
SWIDTH 563 0
DWIDTH 18 0
BBX 18 32 0 -8
BITMAP
000000
000000
000000
000000
000000
000000
000000
000000
000000
000000
000000
000000
000000
000000
007fc0
00ffc0
00e000
00c000
00c000
00c000
00c000
00c000
00c000
00c000
00c000
00c000
00c000
00c000
00c000
00c000
00c000
00c000
ENDCHAR
STARTCHAR apl_leftjoin
ENCODING 421
SWIDTH 563 0
DWIDTH 18 0
BBX 18 32 0 -8
BITMAP
00c000
00c000
00c000
00c000
00c000
00c000
00c000
00c000
00c000
00c000
00c000
00c000
00c000
00c000
00ffc0
00ffc0
00c000
00c000
00c000
00c000
00c000
00c000
00c000
00c000
00c000
00c000
00c000
00c000
00c000
00c000
00c000
00c000
ENDCHAR
STARTCHAR apl_bottomjoin
ENCODING 422
SWIDTH 563 0
DWIDTH 18 0
BBX 18 32 0 -8
BITMAP
00c000
00c000
00c000
00c000
00c000
00c000
00c000
00c000
00c000
00c000
00c000
00c000
00c000
00c000
ffffc0
ffffc0
000000
000000
000000
000000
000000
000000
000000
000000
000000
000000
000000
000000
000000
000000
000000
000000
ENDCHAR
STARTCHAR apl_intersect
ENCODING 427
SWIDTH 563 0
DWIDTH 18 0
BBX 18 32 0 -8
BITMAP
00c000
00c000
00c000
00c000
00c000
00c000
00c000
00c000
00c000
00c000
00c000
00c000
00c000
00c000
ffffc0
ffffc0
00c000
00c000
00c000
00c000
00c000
00c000
00c000
00c000
00c000
00c000
00c000
00c000
00c000
00c000
00c000
00c000
ENDCHAR
STARTCHAR apl_lowerright
ENCODING 428
SWIDTH 563 0
DWIDTH 18 0
BBX 18 32 0 -8
BITMAP
00c000
00c000
00c000
00c000
00c000
00c000
00c000
00c000
00c000
00c000
00c000
00c000
00c000
01c000
ffc000
ff8000
000000
000000
000000
000000
000000
000000
000000
000000
000000
000000
000000
000000
000000
000000
000000
000000
ENDCHAR
STARTCHAR apl_upperright
ENCODING 429
SWIDTH 563 0
DWIDTH 18 0
BBX 18 32 0 -8
BITMAP
000000
000000
000000
000000
000000
000000
000000
000000
000000
000000
000000
000000
000000
000000
ff8000
ffc000
01c000
00c000
00c000
00c000
00c000
00c000
00c000
00c000
00c000
00c000
00c000
00c000
00c000
00c000
00c000
00c000
ENDCHAR
STARTCHAR apl_rightjoin
ENCODING 430
SWIDTH 563 0
DWIDTH 18 0
BBX 18 32 0 -8
BITMAP
00c000
00c000
00c000
00c000
00c000
00c000
00c000
00c000
00c000
00c000
00c000
00c000
00c000
00c000
ffc000
ffc000
00c000
00c000
00c000
00c000
00c000
00c000
00c000
00c000
00c000
00c000
00c000
00c000
00c000
00c000
00c000
00c000
ENDCHAR
STARTCHAR apl_topjoin
ENCODING 431
SWIDTH 563 0
DWIDTH 18 0
BBX 18 32 0 -8
BITMAP
000000
000000
000000
000000
000000
000000
000000
000000
000000
000000
000000
000000
000000
000000
ffffc0
ffffc0
00c000
00c000
00c000
00c000
00c000
00c000
00c000
00c000
00c000
00c000
00c000
00c000
00c000
00c000
00c000
00c000
ENDCHAR
STARTCHAR dec_solid
ENCODING 512
SWIDTH 563 0
DWIDTH 18 0
BBX 18 32 0 -8
BITMAP
07f800
07f800
07f800
07f800
07f800
07f800
07f800
07f800
07f800
07f800
07f800
07f800
07f800
07f800
07f800
07f800
07f800
07f800
07f800
07f800
07f800
07f800
07f800
07f800
07f800
07f800
07f800
07f800
07f800
07f800
07f800
07f800
ENDCHAR
STARTCHAR dec_filled_circle
ENCODING 513
SWIDTH 563 0
DWIDTH 18 0
BBX 18 32 0 -8
BITMAP
000000
000000
000000
000000
000000
000000
000000
000000
000000
000000
000000
01e000
03f000
07f800
07f800
07f800
07f800
03f000
01e000
000000
000000
000000
000000
000000
000000
000000
000000
000000
000000
000000
000000
000000
ENDCHAR
STARTCHAR dec_halftone_block
ENCODING 514
SWIDTH 563 0
DWIDTH 18 0
BBX 18 32 0 -8
BITMAP
aaaa80
555540
aaaa80
555540
aaaa80
555540
aaaa80
555540
aaaa80
555540
aaaa80
555540
aaaa80
555540
aaaa80
555540
aaaa80
555540
aaaa80
555540
aaaa80
555540
aaaa80
555540
aaaa80
555540
aaaa80
555540
aaaa80
555540
aaaa80
555540
ENDCHAR
STARTCHAR dec_ht
ENCODING 515
SWIDTH 563 0
DWIDTH 18 0
BBX 18 32 0 -8
BITMAP
000000
000000
000000
198000
198000
198000
198000
1f8000
1f8000
198000
198000
198000
198000
000000
000000
00fc00
00fc00
003000
003000
003000
003000
003000
003000
003000
003000
000000
000000
000000
000000
000000
000000
000000
ENDCHAR
STARTCHAR dec_ff
ENCODING 516
SWIDTH 563 0
DWIDTH 18 0
BBX 18 32 0 -8
BITMAP
000000
000000
000000
1f8000
1f8000
180000
180000
1f0000
1f0000
180000
180000
180000
180000
000000
000000
00fc00
00fc00
00c000
00c000
00f800
00f800
00c000
00c000
00c000
00c000
000000
000000
000000
000000
000000
000000
000000
ENDCHAR
STARTCHAR dec_cr
ENCODING 517
SWIDTH 563 0
DWIDTH 18 0
BBX 18 32 0 -8
BITMAP
000000
000000
000000
0f0000
1f8000
1d8000
180000
180000
180000
180000
1d8000
1f8000
0f0000
000000
000000
00f800
00fc00
00cc00
00cc00
00f800
00f000
00d800
00d800
00cc00
00cc00
000000
000000
000000
000000
000000
000000
000000
ENDCHAR
STARTCHAR dec_lf
ENCODING 518
SWIDTH 563 0
DWIDTH 18 0
BBX 18 32 0 -8
BITMAP
000000
000000
000000
180000
180000
180000
180000
180000
180000
180000
180000
1f8000
1f8000
000000
000000
00fc00
00fc00
00c000
00c000
00f800
00f800
00c000
00c000
00c000
00c000
000000
000000
000000
000000
000000
000000
000000
ENDCHAR
STARTCHAR dec_degree
ENCODING 519
SWIDTH 563 0
DWIDTH 18 0
BBX 18 32 0 -8
BITMAP
000000
000000
000000
000000
03c000
07e000
0e7000
0c3000
0c3000
0e7000
07e000
03c000
000000
000000
000000
000000
000000
000000
000000
000000
000000
000000
000000
000000
000000
000000
000000
000000
000000
000000
000000
000000
ENDCHAR
STARTCHAR dec_plusminus
ENCODING 520
SWIDTH 563 0
DWIDTH 18 0
BBX 18 32 0 -8
BITMAP
000000
000000
000000
000000
00c000
00c000
00c000
00c000
00c000
00c000
3fff00
3fff00
00c000
00c000
00c000
00c000
00c000
00c000
000000
000000
3fff00
3fff00
000000
000000
000000
000000
000000
000000
000000
000000
000000
000000
ENDCHAR
STARTCHAR dec_nl
ENCODING 521
SWIDTH 563 0
DWIDTH 18 0
BBX 18 32 0 -8
BITMAP
000000
000000
000000
18c000
1cc000
1cc000
1ec000
1ec000
1bc000
19c000
19c000
18c000
18c000
000000
000000
00c000
00c000
00c000
00c000
00c000
00c000
00c000
00c000
00fc00
00fc00
000000
000000
000000
000000
000000
000000
000000
ENDCHAR
STARTCHAR dec_vt
ENCODING 522
SWIDTH 563 0
DWIDTH 18 0
BBX 18 32 0 -8
BITMAP
000000
000000
000000
18c000
18c000
18c000
18c000
18c000
18c000
1dc000
0f8000
070000
020000
000000
000000
00fc00
00fc00
003000
003000
003000
003000
003000
003000
003000
003000
000000
000000
000000
000000
000000
000000
000000
ENDCHAR
STARTCHAR dec_lowerright
ENCODING 523
SWIDTH 563 0
DWIDTH 18 0
BBX 18 32 0 -8
BITMAP
00c000
00c000
00c000
00c000
00c000
00c000
00c000
00c000
00c000
00c000
00c000
00c000
00c000
01c000
ffc000
ff8000
000000
000000
000000
000000
000000
000000
000000
000000
000000
000000
000000
000000
000000
000000
000000
000000
ENDCHAR
STARTCHAR dec_upperright
ENCODING 524
SWIDTH 563 0
DWIDTH 18 0
BBX 18 32 0 -8
BITMAP
000000
000000
000000
000000
000000
000000
000000
000000
000000
000000
000000
000000
000000
000000
ff8000
ffc000
01c000
00c000
00c000
00c000
00c000
00c000
00c000
00c000
00c000
00c000
00c000
00c000
00c000
00c000
00c000
00c000
ENDCHAR
STARTCHAR dec_upperleft
ENCODING 525
SWIDTH 563 0
DWIDTH 18 0
BBX 18 32 0 -8
BITMAP
000000
000000
000000
000000
000000
000000
000000
000000
000000
000000
000000
000000
000000
000000
007fc0
00ffc0
00e000
00c000
00c000
00c000
00c000
00c000
00c000
00c000
00c000
00c000
00c000
00c000
00c000
00c000
00c000
00c000
ENDCHAR
STARTCHAR dec_lowerleft
ENCODING 526
SWIDTH 563 0
DWIDTH 18 0
BBX 18 32 0 -8
BITMAP
00c000
00c000
00c000
00c000
00c000
00c000
00c000
00c000
00c000
00c000
00c000
00c000
00c000
00e000
00ffc0
007fc0
000000
000000
000000
000000
000000
000000
000000
000000
000000
000000
000000
000000
000000
000000
000000
000000
ENDCHAR
STARTCHAR dec_intersect
ENCODING 527
SWIDTH 563 0
DWIDTH 18 0
BBX 18 32 0 -8
BITMAP
00c000
00c000
00c000
00c000
00c000
00c000
00c000
00c000
00c000
00c000
00c000
00c000
00c000
00c000
ffffc0
ffffc0
00c000
00c000
00c000
00c000
00c000
00c000
00c000
00c000
00c000
00c000
00c000
00c000
00c000
00c000
00c000
00c000
ENDCHAR
STARTCHAR dec_hbar1
ENCODING 528
SWIDTH 563 0
DWIDTH 18 0
BBX 18 32 0 -8
BITMAP
000000
000000
ffffc0
ffffc0
000000
000000
000000
000000
000000
000000
000000
000000
000000
000000
000000
000000
000000
000000
000000
000000
000000
000000
000000
000000
000000
000000
000000
000000
000000
000000
000000
000000
ENDCHAR
STARTCHAR dec_hbar2
ENCODING 529
SWIDTH 563 0
DWIDTH 18 0
BBX 18 32 0 -8
BITMAP
000000
000000
000000
000000
000000
000000
000000
000000
ffffc0
ffffc0
000000
000000
000000
000000
000000
000000
000000
000000
000000
000000
000000
000000
000000
000000
000000
000000
000000
000000
000000
000000
000000
000000
ENDCHAR
STARTCHAR dec_hbar3
ENCODING 530
SWIDTH 563 0
DWIDTH 18 0
BBX 18 32 0 -8
BITMAP
000000
000000
000000
000000
000000
000000
000000
000000
000000
000000
000000
000000
000000
000000
ffffc0
ffffc0
000000
000000
000000
000000
000000
000000
000000
000000
000000
000000
000000
000000
000000
000000
000000
000000
ENDCHAR
STARTCHAR dec_hbar4
ENCODING 531
SWIDTH 563 0
DWIDTH 18 0
BBX 18 32 0 -8
BITMAP
000000
000000
000000
000000
000000
000000
000000
000000
000000
000000
000000
000000
000000
000000
000000
000000
000000
000000
000000
000000
ffffc0
ffffc0
000000
000000
000000
000000
000000
000000
000000
000000
000000
000000
ENDCHAR
STARTCHAR dec_hbar5
ENCODING 532
SWIDTH 563 0
DWIDTH 18 0
BBX 18 32 0 -8
BITMAP
000000
000000
000000
000000
000000
000000
000000
000000
000000
000000
000000
000000
000000
000000
000000
000000
000000
000000
000000
000000
000000
000000
000000
000000
000000
000000
ffffc0
ffffc0
000000
000000
000000
000000
ENDCHAR
STARTCHAR dec_leftjoin
ENCODING 533
SWIDTH 563 0
DWIDTH 18 0
BBX 18 32 0 -8
BITMAP
00c000
00c000
00c000
00c000
00c000
00c000
00c000
00c000
00c000
00c000
00c000
00c000
00c000
00c000
00ffc0
00ffc0
00c000
00c000
00c000
00c000
00c000
00c000
00c000
00c000
00c000
00c000
00c000
00c000
00c000
00c000
00c000
00c000
ENDCHAR
STARTCHAR dec_rightjoin
ENCODING 534
SWIDTH 563 0
DWIDTH 18 0
BBX 18 32 0 -8
BITMAP
00c000
00c000
00c000
00c000
00c000
00c000
00c000
00c000
00c000
00c000
00c000
00c000
00c000
00c000
ffc000
ffc000
00c000
00c000
00c000
00c000
00c000
00c000
00c000
00c000
00c000
00c000
00c000
00c000
00c000
00c000
00c000
00c000
ENDCHAR
STARTCHAR dec_bottomjoin
ENCODING 535
SWIDTH 563 0
DWIDTH 18 0
BBX 18 32 0 -8
BITMAP
00c000
00c000
00c000
00c000
00c000
00c000
00c000
00c000
00c000
00c000
00c000
00c000
00c000
00c000
ffffc0
ffffc0
000000
000000
000000
000000
000000
000000
000000
000000
000000
000000
000000
000000
000000
000000
000000
000000
ENDCHAR
STARTCHAR dec_topjoin
ENCODING 536
SWIDTH 563 0
DWIDTH 18 0
BBX 18 32 0 -8
BITMAP
000000
000000
000000
000000
000000
000000
000000
000000
000000
000000
000000
000000
000000
000000
ffffc0
ffffc0
00c000
00c000
00c000
00c000
00c000
00c000
00c000
00c000
00c000
00c000
00c000
00c000
00c000
00c000
00c000
00c000
ENDCHAR
STARTCHAR dec_vbar
ENCODING 537
SWIDTH 563 0
DWIDTH 18 0
BBX 18 32 0 -8
BITMAP
00c000
00c000
00c000
00c000
00c000
00c000
00c000
00c000
00c000
00c000
00c000
00c000
00c000
00c000
00c000
00c000
00c000
00c000
00c000
00c000
00c000
00c000
00c000
00c000
00c000
00c000
00c000
00c000
00c000
00c000
00c000
00c000
ENDCHAR
STARTCHAR dec_notgreater
ENCODING 538
SWIDTH 563 0
DWIDTH 18 0
BBX 18 32 0 -8
BITMAP
000000
000000
000000
000000
000000
000000
000c00
001c00
003800
007000
00e000
01c000
038000
070000
0e0000
0e0000
070000
038000
01c000
00e000
007000
003800
001c00
000c00
000000
000000
1ffe00
1ffe00
000000
000000
000000
000000
ENDCHAR
STARTCHAR dec_notless
ENCODING 539
SWIDTH 563 0
DWIDTH 18 0
BBX 18 32 0 -8
BITMAP
000000
000000
000000
000000
000000
000000
0c0000
0e0000
070000
038000
01c000
00e000
007000
003800
001c00
001c00
003800
007000
00e000
01c000
038000
070000
0e0000
0c0000
000000
000000
1ffe00
1ffe00
000000
000000
000000
000000
ENDCHAR
STARTCHAR dec_pi
ENCODING 540
SWIDTH 563 0
DWIDTH 18 0
BBX 18 32 0 -8
BITMAP
000000
000000
000000
000000
000000
000000
000000
000000
3fff00
3fff00
0c0c00
0c0c00
0c0c00
0c0c00
0c0c00
0c0c00
0c0c00
0c0c00
0c0c00
0c0c00
0c0c00
1c0c00
180c00
180c00
000000
000000
000000
000000
000000
000000
000000
000000
ENDCHAR
STARTCHAR dec_notequal
ENCODING 541
SWIDTH 563 0
DWIDTH 18 0
BBX 18 32 0 -8
BITMAP
000000
000000
000000
000000
000000
000000
000000
000000
000300
000700
000e00
001c00
3fff00
3fff00
00e000
01c000
3fff00
3fff00
0e0000
1c0000
380000
300000
000000
000000
000000
000000
000000
000000
000000
000000
000000
000000
ENDCHAR
STARTCHAR dec_sterling
ENCODING 542
SWIDTH 563 0
DWIDTH 18 0
BBX 18 32 0 -8
BITMAP
000000
000000
000000
000000
00f000
01f800
039c00
030c00
030000
030000
030000
030000
3ff000
3ff000
030000
030000
030000
030000
030000
030000
3f0300
3f8700
3ffe00
3cfc00
000000
000000
000000
000000
000000
000000
000000
000000
ENDCHAR
STARTCHAR dec_periodcentered
ENCODING 543
SWIDTH 563 0
DWIDTH 18 0
BBX 18 32 0 -8
BITMAP
000000
000000
000000
000000
000000
000000
000000
000000
000000
000000
000000
000000
000000
000000
03c000
03c000
03c000
03c000
000000
000000
000000
000000
000000
000000
000000
000000
000000
000000
000000
000000
000000
000000
ENDCHAR
ENDFONT
